<?xml version="1.0" encoding="utf-8"?>
<!-- Generator: Adobe Illustrator 23.0.0, SVG Export Plug-In . SVG Version: 6.00 Build 0)  -->
<svg version="1.1" id="Capa_1" xmlns="http://www.w3.org/2000/svg" xmlns:xlink="http://www.w3.org/1999/xlink" x="0px" y="0px"
	 viewBox="0 0 400.4 400.4" style="enable-background:new 0 0 400.4 400.4;" xml:space="preserve">
<style type="text/css">
	.st0{fill:#334051;}
</style>
<g>
	<g>
		<path class="st0" d="M328.4,87.7h-48.5V63.1c1-16.7-11.7-31-28.4-32c-1.2-0.1-2.4-0.1-3.6,0h-96c-16.7-1-31,11.7-32,28.4
			c-0.1,1.2-0.1,2.4,0,3.6v24.6H72c-33.3,0-72,18.9-72,72v137.2c-0.1,53.3,38.7,72.5,72,72.5h256.4c33.3,0,72-18.9,72-72V159.7
			C400.4,106.5,361.5,87.7,328.4,87.7z M149.1,47.1c1.1-0.1,2.3-0.1,3.4,0h96c7.9-0.9,15.1,4.7,16,12.6c0.1,1.1,0.1,2.3,0,3.4v24.6
			h-128V63.1C135.5,55.2,141.2,48,149.1,47.1z M384.4,296.9c0,52.1-43,56-56,56H72c-13.2,0-56-4.1-56-56l-0.1-137.1
			c0-52.1,43-56,56-56h256.5c13.2,0,56,4.1,56,56V296.9z"/>
	</g>
</g>
<g>
	<g>
		<path class="st0" d="M282.2,173.3h-30v-30c0-8.8-7.2-16-16-16h-72c-8.8,0-16,7.2-16,16v30h-30c-8.8,0-16,7.2-16,16v72
			c0,8.8,7.2,16,16,16h30v30c0,8.8,7.2,16,16,16h72c8.8,0,16-7.2,16-16v-30h30c8.8,0,16-7.2,16-16v-72
			C298.2,180.5,291.1,173.3,282.2,173.3z M282.2,261.3h-38c-4.4,0-8,3.6-8,8v38h-72v-38c0-4.4-3.6-8-8-8h-38v-72h38c4.4,0,8-3.6,8-8
			v-38h72v38c0,4.4,3.6,8,8,8h38V261.3z"/>
	</g>
</g>
<g>
	<g>
		<path class="st0" d="M168.8,254.3c-0.2-9.4,4.6-15.2,16.1-31.1c9-12.5,24.2-12.3,32,0.1c8.9,14,15.4,23.5,15.4,31.2
			c0,7.6-5.9,8.6-14.2,8.5c-8.3-0.1-9.5-8.1-17.4-8.1c-6.9,0-9.6,8.2-18.9,8.2C172.1,263,168.9,260.3,168.8,254.3z"/>
		
			<ellipse transform="matrix(2.281587e-03 -1 1 2.281587e-03 -49.0199 389.7922)" class="st0" cx="170.8" cy="219.5" rx="11.1" ry="8.5"/>
		
			<ellipse transform="matrix(2.281587e-03 -1 1 2.281587e-03 7.2433 451.8062)" class="st0" cx="230" cy="222.3" rx="11.1" ry="8.5"/>
		
			<ellipse transform="matrix(2.281587e-03 -1 1 2.281587e-03 -11.6938 385.7112)" class="st0" cx="187.4" cy="198.7" rx="12.4" ry="9.7"/>
		
			<ellipse transform="matrix(2.281587e-03 -1 1 2.281587e-03 12.9965 412.3)" class="st0" cx="213.1" cy="199.6" rx="12.4" ry="9.7"/>
	</g>
</g>
</svg>
