<?xml version="1.0" encoding="utf-8"?>
<!-- Generator: Adobe Illustrator 23.0.0, SVG Export Plug-In . SVG Version: 6.00 Build 0)  -->
<svg version="1.1" id="Layer_1" xmlns="http://www.w3.org/2000/svg" xmlns:xlink="http://www.w3.org/1999/xlink" x="0px" y="0px"
	 viewBox="0 0 212.2 212.1" style="enable-background:new 0 0 212.2 212.1;" xml:space="preserve">
<style type="text/css">
	.st0{fill:#F8A076;}
	.st1{fill:#FFFFFF;}
	.st2{fill:#334051;}
</style>
<circle class="st0" cx="106.1" cy="106.1" r="86.8"/>
<g>
	<path class="st1" d="M106.7,160.5c-90,2-93.5-111.1,5.1-106.9c1.7,0.1,3,1.5,2.9,3.2l-1.5,31l-13.5,18.3l10.9,32.7l-0.9,18.7
		C109.6,159.2,108.3,160.5,106.7,160.5z"/>
	<path class="st2" d="M92.4,93.8c0,1.8-0.6,3.5-1.6,4.8c0,0-3.1-2-5.1-2c-2.2,0-5.5,1.5-5.5,1.5c-0.8-1.2-1.3-2.7-1.3-4.3
		c0-4.1,3-7.3,6.7-7.3C89.4,86.5,92.4,89.8,92.4,93.8z"/>
	<path class="st2" d="M139.5,93.8c0,1.8-0.6,3.5-1.6,4.8c0,0-3.1-2-5.1-2c-2.2,0-5.5,1.5-5.5,1.5c-0.8-1.2-1.3-2.7-1.3-4.3
		c0-4.1,3-7.3,6.7-7.3C136.5,86.5,139.5,89.8,139.5,93.8z"/>
	<path class="st2" d="M154.8,139.8c-0.8-1.2-2.4-1.5-3.6-0.7c-0.5,0.4-1.1,0.8-1.7,1.2c-8,5.6-18,12.6-26.9,7.1
		c-9.2-5.7-13.4-18-16.3-29.2c-0.6-2.4-1.1-4.8-1.5-7.2c-0.3-1.4-0.5-2.8-0.8-4.1c0-0.1,0-0.4,0-0.6c0-0.1,0-0.2,0-0.3
		c0.1-0.1,0.1-0.1,0.2-0.2c0.2-0.2,0.4-0.4,0.5-0.6l33.8-45.5c0.6-0.8,0.7-1.7,0.3-2.5c-0.4-0.9-1.3-1.5-2.3-1.6s-2,0.3-2.6,1.1
		l-15.5,20.9c-2.1,2.8-4.2,5.6-6.4,8.3c-4.3,5.5-8.7,11.2-12.5,17.1c-1.2,1.9-1.2,2.9-0.8,4.9c0.7,4.4,1.6,8.9,2.9,13.3
		c2.9,10.6,7.5,23.6,17.6,30.4c3.5,2.3,7,3.3,10.4,3.3c8.5,0,16.7-5.7,23.7-10.5l0.8-0.6C155.4,142.8,155.7,141.1,154.8,139.8z"/>
	<path class="st2" d="M167.1,77.7c-0.6,10.4-15.6,10.4-16.2,0c-0.2-3.1-5.1-3.2-4.9,0c0.4,7,5.7,13,13,13s12.6-6,13-13
		C172.2,74.5,167.3,74.5,167.1,77.7L167.1,77.7z"/>
</g>
</svg>
