<?xml version="1.0" encoding="utf-8"?>
<!-- Generator: Adobe Illustrator 23.0.0, SVG Export Plug-In . SVG Version: 6.00 Build 0)  -->
<svg version="1.1" id="Layer_1" xmlns="http://www.w3.org/2000/svg" xmlns:xlink="http://www.w3.org/1999/xlink" x="0px" y="0px"
	 viewBox="0 0 302.5 156.1" style="enable-background:new 0 0 302.5 156.1;" xml:space="preserve">
<style type="text/css">
	.st0{fill:#F8A076;}
	.st1{fill:#334051;}
	.st2{fill:#FFFFFF;}
</style>
<g>
	<path class="st0" d="M285,136.6c0,2-1.6,3.6-3.6,3.6H30.8c-2,0-3.6-1.6-3.6-3.6V25.3c0-2,1.6-3.6,3.6-3.6h250.6
		c2,0,3.6,1.6,3.6,3.6V136.6z"/>
</g>
<g>
	<path class="st2" d="M95,128.5c-78.9,1.8-81.9-97.4,4.5-93.7c1.5,0.1,2.6,1.3,2.5,2.8l-1.4,27.2L88.8,80.9l9.6,28.7L97.6,126
		C97.5,127.4,96.4,128.5,95,128.5z"/>
	<g>
		<path class="st1" d="M82.5,70.1c0,1.6-0.5,3.1-1.4,4.2c0,0-2.7-1.8-4.5-1.8c-2,0-4.8,1.3-4.8,1.3c-0.7-1.1-1.1-2.4-1.1-3.8
			c0-3.6,2.6-6.4,5.9-6.4C79.9,63.6,82.5,66.5,82.5,70.1z"/>
		<path class="st1" d="M122.9,70.1c0,1.6-0.5,3.1-1.4,4.2c0,0-2.7-1.8-4.5-1.8c-2,0-4.8,1.3-4.8,1.3c-0.7-1.1-1.1-2.4-1.1-3.8
			c0-3.6,2.6-6.4,5.9-6.4C120.3,63.6,122.9,66.5,122.9,70.1z"/>
		<path class="st1" d="M136.3,110.4c-0.7-1.1-2.1-1.3-3.2-0.6c-0.5,0.3-1,0.7-1.5,1c-7,4.9-15.8,11-23.6,6.2
			c-8.1-5-11.8-15.8-14.3-25.6c-0.5-2.1-0.9-4.2-1.3-6.3c-0.2-1.2-0.5-2.4-0.7-3.6c0-0.1,0-0.4,0-0.5s0-0.2,0-0.3
			c0.1-0.1,0.1-0.1,0.2-0.2c0.2-0.2,0.3-0.4,0.4-0.5l29.6-39.9c0.5-0.7,0.6-1.5,0.3-2.2c-0.3-0.8-1.1-1.3-2-1.4s-1.7,0.3-2.2,1
			l-13.7,18.2c-1.8,2.4-3.7,4.9-5.6,7.2c-3.8,4.8-7.7,9.8-11,15c-1.1,1.7-1,2.5-0.7,4.3c0.6,3.8,1.4,7.8,2.5,11.7
			c2.5,9.3,6.6,20.7,15.4,26.6c3,2.1,6.1,2.9,9.2,2.9c7.4,0,14.6-5,20.8-9.2l0.7-0.5C136.8,113,137.1,111.5,136.3,110.4z"/>
		<path class="st1" d="M147.1,55.9c-0.5,9.1-13.7,9.1-14.2,0c-0.1-2.8-4.5-2.8-4.3,0c0.3,6.2,5,11.4,11.4,11.4s11.1-5.2,11.4-11.4
			C151.6,53.1,147.2,53.1,147.1,55.9L147.1,55.9z"/>
	</g>
</g>
<g>
	<path class="st2" d="M174.6,69.7c-3.3,0-5.9-1.2-7.8-3.6h-0.4c0.3,2.3,0.4,3.7,0.4,4.1v11.4h-7.7V41.1h6.2l1.1,3.7h0.4
		c1.8-2.8,4.4-4.2,8-4.2c3.3,0,5.9,1.3,7.8,3.9s2.8,6.1,2.8,10.7c0,3-0.4,5.6-1.3,7.8c-0.9,2.2-2.1,3.9-3.8,5.1
		C178.7,69.1,176.8,69.7,174.6,69.7z M172.3,46.7c-1.9,0-3.3,0.6-4.1,1.8c-0.9,1.2-1.3,3.1-1.4,5.8v0.8c0,3,0.4,5.2,1.3,6.5
		s2.3,2,4.3,2c3.4,0,5.1-2.8,5.1-8.5c0-2.8-0.4-4.8-1.3-6.2C175.5,47.4,174.1,46.7,172.3,46.7z"/>
	<path class="st2" d="M203.9,69.7c-4.5,0-8.1-1.3-10.6-3.8c-2.5-2.5-3.8-6-3.8-10.6c0-4.7,1.2-8.4,3.5-10.9c2.4-2.6,5.6-3.9,9.8-3.9
		c4,0,7.1,1.1,9.3,3.4c2.2,2.3,3.3,5.4,3.3,9.4V57h-18.1c0.1,2.2,0.7,3.9,1.9,5.1c1.2,1.2,2.9,1.8,5.1,1.8c1.7,0,3.3-0.2,4.8-0.5
		c1.5-0.4,3.1-0.9,4.7-1.7v5.9c-1.3,0.7-2.8,1.2-4.3,1.5C208,69.6,206.1,69.7,203.9,69.7z M202.8,46c-1.6,0-2.9,0.5-3.8,1.5
		s-1.4,2.5-1.6,4.4h10.7c0-1.9-0.5-3.4-1.5-4.4S204.5,46,202.8,46z"/>
	<path class="st2" d="M232.9,63.6c1.3,0,2.9-0.3,4.8-0.9v5.7c-1.9,0.9-4.3,1.3-7,1.3c-3.1,0-5.3-0.8-6.7-2.3s-2.1-3.9-2.1-7V46.8
		h-3.7v-3.2l4.2-2.6l2.2-5.9h4.9v6h7.9v5.8h-7.9v13.6c0,1.1,0.3,1.9,0.9,2.4S231.9,63.6,232.9,63.6z"/>
	<path class="st2" d="M262.5,60.9c0,2.9-1,5.1-3,6.6s-5,2.3-9,2.3c-2,0-3.8-0.1-5.2-0.4c-1.4-0.3-2.8-0.7-4-1.2v-6.3
		c1.4,0.7,3,1.2,4.8,1.7c1.8,0.5,3.4,0.7,4.7,0.7c2.8,0,4.2-0.8,4.2-2.4c0-0.6-0.2-1.1-0.6-1.5s-1-0.8-1.9-1.3s-2.1-1-3.6-1.7
		c-2.2-0.9-3.7-1.7-4.8-2.5c-1-0.8-1.7-1.7-2.2-2.7s-0.7-2.2-0.7-3.7c0-2.5,1-4.4,2.9-5.8s4.7-2.1,8.2-2.1c3.4,0,6.7,0.7,9.9,2.2
		l-2.3,5.5c-1.4-0.6-2.7-1.1-3.9-1.5c-1.2-0.4-2.5-0.6-3.7-0.6c-2.3,0-3.4,0.6-3.4,1.8c0,0.7,0.4,1.3,1.1,1.8s2.3,1.3,4.8,2.2
		c2.2,0.9,3.8,1.7,4.8,2.5s1.8,1.7,2.3,2.7C262.2,58.3,262.5,59.5,262.5,60.9z"/>
	<path class="st2" d="M174.7,103.3h-6.6v22.4h-7.7v-22.4h-4.2v-3.7l4.2-2.1v-2.1c0-3.2,0.8-5.5,2.4-7c1.6-1.5,4.1-2.2,7.6-2.2
		c2.6,0,5,0.4,7.1,1.2l-2,5.6c-1.5-0.5-3-0.7-4.3-0.7c-1.1,0-1.9,0.3-2.4,1c-0.5,0.6-0.7,1.5-0.7,2.5v1.8h6.6V103.3L174.7,103.3z
		 M178.8,90.3c0-2.5,1.4-3.8,4.2-3.8c2.8,0,4.2,1.2,4.2,3.8c0,1.2-0.3,2.1-1,2.8c-0.7,0.7-1.7,1-3.1,1
		C180.2,94,178.8,92.8,178.8,90.3z M186.8,125.7h-7.7V97.5h7.7V125.7z"/>
	<path class="st2" d="M209.9,97c1,0,1.9,0.1,2.6,0.2l-0.6,7.2c-0.6-0.2-1.4-0.3-2.3-0.3c-2.4,0-4.3,0.6-5.7,1.9c-1.4,1.3-2,3-2,5.3
		v14.3h-7.7V97.4h5.8l1.1,4.7h0.4c0.9-1.6,2-2.8,3.5-3.8C206.6,97.5,208.2,97,209.9,97z"/>
	<path class="st2" d="M236.7,117.3c0,2.9-1,5.1-3,6.6s-5,2.3-9,2.3c-2,0-3.8-0.1-5.2-0.4c-1.4-0.3-2.8-0.7-4-1.2v-6.3
		c1.4,0.7,3,1.2,4.8,1.7s3.4,0.7,4.7,0.7c2.8,0,4.2-0.8,4.2-2.4c0-0.6-0.2-1.1-0.6-1.5s-1-0.8-1.9-1.3s-2.1-1-3.6-1.7
		c-2.2-0.9-3.7-1.7-4.8-2.5c-1-0.8-1.7-1.7-2.2-2.7s-0.7-2.2-0.7-3.7c0-2.5,1-4.4,2.9-5.8s4.7-2.1,8.2-2.1c3.4,0,6.7,0.7,9.9,2.2
		l-2.3,5.5c-1.4-0.6-2.7-1.1-3.9-1.5c-1.2-0.4-2.5-0.6-3.7-0.6c-2.3,0-3.4,0.6-3.4,1.8c0,0.7,0.4,1.3,1.1,1.8s2.3,1.3,4.8,2.2
		c2.2,0.9,3.8,1.7,4.8,2.5s1.8,1.7,2.3,2.7C236.4,114.7,236.7,115.9,236.7,117.3z"/>
	<path class="st2" d="M254,120.1c1.3,0,2.9-0.3,4.8-0.9v5.7c-1.9,0.9-4.3,1.3-7,1.3c-3.1,0-5.3-0.8-6.7-2.3s-2.1-3.9-2.1-7v-13.6
		h-3.7v-3.2l4.2-2.6l2.2-5.9h4.9v6h7.9v5.8h-7.9V117c0,1.1,0.3,1.9,0.9,2.4S252.9,120.1,254,120.1z"/>
</g>
</svg>
