<?xml version="1.0" encoding="utf-8"?>
<!-- Generator: Adobe Illustrator 23.0.0, SVG Export Plug-In . SVG Version: 6.00 Build 0)  -->
<svg version="1.1" id="Capa_1" xmlns="http://www.w3.org/2000/svg" xmlns:xlink="http://www.w3.org/1999/xlink" x="0px" y="0px"
	 viewBox="0 0 421 421" style="enable-background:new 0 0 421 421;" xml:space="preserve">
<style type="text/css">
	.st0{fill:#FFFFFF;}
</style>
<g>
	<g>
		<circle class="st0" cx="130.2" cy="149" r="8.8"/>
	</g>
</g>
<g>
	<g>
		<circle class="st0" cx="187.1" cy="117.7" r="8.8"/>
	</g>
</g>
<g>
	<g>
		<circle class="st0" cx="138.3" cy="121.6" r="8.8"/>
	</g>
</g>
<g>
	<g>
		<circle class="st0" cx="159.6" cy="109.8" r="8.8"/>
	</g>
</g>
<g>
	<g>
		<path class="st0" d="M205.7,141.9c-4.2-9-14.9-12.8-23.8-8.6c-0.7,0.3-1.4,0.7-2,1.1c-5-8.5-15.8-11.3-24.3-6.4
			c-8.5,4.7-11.6,15.4-7,24c-8.4,5.3-10.8,16.4-5.5,24.7c4.8,7.6,14.6,10.5,22.7,6.6l31.4-17.6C206,161.5,209.9,150.8,205.7,141.9z"
			/>
	</g>
</g>
<g>
	<g>
		<path class="st0" d="M349.6,26.1h-94.9V8c0-4.4-3.6-8-8-8h-72c-4.4,0-8,3.6-8,8v18.1H71.5c-9.5,0-17.2,7.7-17.2,17.2v360.9
			c0.2,9.4,7.8,16.9,17.2,16.9h278.1c9.5,0,17.2-7.7,17.2-17.2V43.3C366.8,33.8,359.1,26.1,349.6,26.1z M169.3,41.6
			c0.7-0.1,1.4-0.1,2.1,0h0.2h2.9c4.4,0,8-3.6,8-8V16h56v17.6c0,4.4,3.6,8,8,8h2.9c7.9-0.6,14.8,5.3,15.4,13.2
			c0.6,7.9-5.3,14.8-13.2,15.3c-0.7,0.1-1.4,0.1-2.1,0h-77.9c-7.9,0.6-14.8-5.3-15.4-13.2C155.5,49.1,161.5,42.2,169.3,41.6z
			 M171.6,86.2h78c7.8,0,15.3-3,21-8.5h48.5v292H102v-292h48.6C156.3,83.1,163.8,86.2,171.6,86.2z M350.9,404.2
			c0,0.7-0.5,1.2-1.2,1.2H71.5c-0.7,0-1.2-0.5-1.2-1.2V43.3c0-0.7,0.5-1.2,1.2-1.2h73c-3.2,6-4.2,12.9-2.9,19.6h-48
			c-4.4,0-8,3.6-8,8v308c0,4.4,3.6,8,8,8H327c4.4,0,8-3.6,8-8v-308c0-4.4-3.6-8-8-8h-48c1.4-6.7,0.3-13.6-2.9-19.6h73.3
			c0.7-0.1,1.3,0.4,1.3,1c0,0.1,0,0.1,0,0.2l0.2-0.1L350.9,404.2L350.9,404.2z"/>
	</g>
</g>
<g>
	<g>
		<path class="st0" d="M281.6,209.7h-142c-4.4,0-8,3.6-8,8s3.6,8,8,8h142c4.4,0,8-3.6,8-8S286,209.7,281.6,209.7z"/>
	</g>
</g>
<g>
	<g>
		<path class="st0" d="M281.6,247h-142c-4.4,0-8,3.6-8,8c0,4.4,3.6,8,8,8h142c4.4,0,8-3.6,8-8S286,247,281.6,247z"/>
	</g>
</g>
<g>
	<g>
		<path class="st0" d="M281.6,284.4h-142c-4.4,0-8,3.6-8,8s3.6,8,8,8h142c4.4,0,8-3.6,8-8S286,284.4,281.6,284.4z"/>
	</g>
</g>
<g>
	<g>
		<path class="st0" d="M281.6,321.7h-142c-4.4,0-8,3.6-8,8s3.6,8,8,8h142c4.4,0,8-3.6,8-8S286,321.7,281.6,321.7z"/>
	</g>
</g>
</svg>
