<?xml version="1.0" encoding="utf-8"?>
<!-- Generator: Adobe Illustrator 23.0.0, SVG Export Plug-In . SVG Version: 6.00 Build 0)  -->
<svg version="1.1" id="Capa_1" xmlns="http://www.w3.org/2000/svg" xmlns:xlink="http://www.w3.org/1999/xlink" x="0px" y="0px"
	 viewBox="0 0 421 421" style="enable-background:new 0 0 421 421;" xml:space="preserve">
<style type="text/css">
	.st0{fill:#FFFFFF;}
</style>
<g>
	<g>
		<path class="st0" d="M349.6,26.1h-94.9V8c0-4.4-3.6-8-8-8h-72c-4.4,0-8,3.6-8,8v18.1H71.5c-9.5,0-17.2,7.7-17.2,17.2v360.9
			c0.2,9.4,7.8,16.9,17.2,16.9h278.1c9.5,0,17.2-7.7,17.2-17.2V43.3C366.8,33.8,359.1,26.1,349.6,26.1z M169.3,41.6
			c0.7-0.1,1.4-0.1,2.1,0h0.2h2.9c4.4,0,8-3.6,8-8V16h56v17.6c0,4.4,3.6,8,8,8h2.9c7.9-0.6,14.8,5.3,15.4,13.2s-5.3,14.8-13.2,15.3
			c-0.7,0.1-1.4,0.1-2.1,0h-77.9c-7.9,0.6-14.8-5.3-15.4-13.2C155.5,49.1,161.5,42.2,169.3,41.6z M171.6,86.2h78
			c7.8,0,15.3-3,21-8.5h48.5v292H102v-292h48.6C156.3,83.1,163.8,86.2,171.6,86.2z M350.9,404.2c0,0.7-0.5,1.2-1.2,1.2H71.5
			c-0.7,0-1.2-0.5-1.2-1.2V43.3c0-0.7,0.5-1.2,1.2-1.2h73c-3.2,6-4.2,12.9-2.9,19.6h-48c-4.4,0-8,3.6-8,8v308c0,4.4,3.6,8,8,8H327
			c4.4,0,8-3.6,8-8v-308c0-4.4-3.6-8-8-8h-48c1.4-6.7,0.3-13.6-2.9-19.6h73.3c0.7-0.1,1.3,0.4,1.3,1c0,0.1,0,0.1,0,0.2l0.2-0.1
			L350.9,404.2L350.9,404.2z"/>
	</g>
</g>
<g>
	<g>
		<path class="st0" d="M281.6,247h-142c-4.4,0-8,3.6-8,8s3.6,8,8,8h142c4.4,0,8-3.6,8-8S286,247,281.6,247z"/>
	</g>
</g>
<g>
	<g>
		<path class="st0" d="M281.6,284.4h-142c-4.4,0-8,3.6-8,8s3.6,8,8,8h142c4.4,0,8-3.6,8-8S286,284.4,281.6,284.4z"/>
	</g>
</g>
<g>
	<g>
		<path class="st0" d="M281.6,321.7h-142c-4.4,0-8,3.6-8,8s3.6,8,8,8h142c4.4,0,8-3.6,8-8S286,321.7,281.6,321.7z"/>
	</g>
</g>
<g>
	<path class="st0" d="M163.9,206.2c-0.5-13.8,6.4-22.5,23.1-46.3c13-18.6,35.5-18.6,47.3-0.6c13.5,20.5,23.3,34.4,23.5,45.7
		c0.1,11.3-8.6,12.9-20.7,12.9c-12.2,0-14.2-11.8-25.9-11.6c-10.2,0.1-14,12.3-27.7,12.5C169,219,164.2,215.1,163.9,206.2z"/>
	
		<ellipse transform="matrix(0.9999 -1.251823e-02 1.251823e-02 0.9999 -1.9124 2.07)" class="st0" cx="164.4" cy="153.8" rx="12.6" ry="16.4"/>
	
		<ellipse transform="matrix(0.9999 -1.251823e-02 1.251823e-02 0.9999 -1.9127 3.2192)" class="st0" cx="256.2" cy="154.4" rx="12.6" ry="16.4"/>
	
		<ellipse transform="matrix(0.9999 -1.251823e-02 1.251823e-02 0.9999 -1.5323 2.3906)" class="st0" cx="190.2" cy="123.6" rx="14.4" ry="18.4"/>
	
		<ellipse transform="matrix(0.9999 -1.251823e-02 1.251823e-02 0.9999 -1.5394 2.8664)" class="st0" cx="228.2" cy="124.4" rx="14.4" ry="18.4"/>
</g>
</svg>
