<?xml version="1.0" encoding="utf-8"?>
<!-- Generator: Adobe Illustrator 23.0.0, SVG Export Plug-In . SVG Version: 6.00 Build 0)  -->
<svg version="1.1" id="Layer_1" xmlns="http://www.w3.org/2000/svg" xmlns:xlink="http://www.w3.org/1999/xlink" x="0px" y="0px"
	 viewBox="0 0 236.4 229.8" style="enable-background:new 0 0 236.4 229.8;" xml:space="preserve">
<style type="text/css">
	.st0{fill:#334051;}
	.st1{fill:#F8A076;}
	.st2{fill:#FFFFFF;}
	.st3{fill:#F8A076;stroke:#334051;stroke-width:4;stroke-linejoin:round;stroke-miterlimit:10;}
	.st4{fill:#FFFFFF;stroke:#334051;stroke-width:4;stroke-linejoin:round;stroke-miterlimit:10;}
	.st5{fill:#F8A076;stroke:#334051;stroke-width:2.8961;stroke-linejoin:round;stroke-miterlimit:10;}
</style>
<g>
	<g>
		<path class="st2" d="M40.7,198.5c-2.7,0-4.8-1-6.3-2.9h-0.3c0.2,1.9,0.3,3,0.3,3.3v9.3h-6.2v-33h5.1l0.9,3h0.3
			c1.5-2.3,3.6-3.4,6.5-3.4c2.7,0,4.8,1,6.3,3.1s2.3,5,2.3,8.7c0,2.4-0.4,4.6-1.1,6.4s-1.7,3.2-3.1,4.1S42.5,198.5,40.7,198.5z
			 M38.9,179.7c-1.5,0-2.7,0.5-3.4,1.4c-0.7,1-1.1,2.5-1.1,4.7v0.7c0,2.5,0.4,4.2,1.1,5.3c0.7,1.1,1.9,1.6,3.5,1.6
			c2.8,0,4.2-2.3,4.2-6.9c0-2.3-0.3-3.9-1-5.1C41.4,180.3,40.4,179.7,38.9,179.7z"/>
		<path class="st2" d="M64.6,198.5c-3.7,0-6.6-1-8.6-3.1s-3.1-4.9-3.1-8.7s1-6.8,2.9-8.9c1.9-2.1,4.6-3.1,7.9-3.1
			c3.2,0,5.7,0.9,7.5,2.8c1.8,1.8,2.7,4.4,2.7,7.6v3H59.2c0.1,1.8,0.6,3.2,1.6,4.2s2.4,1.5,4.1,1.5c1.4,0,2.7-0.1,3.9-0.4
			c1.2-0.3,2.5-0.7,3.8-1.4v4.8c-1.1,0.5-2.3,1-3.5,1.2C67.9,198.3,66.4,198.5,64.6,198.5z M63.7,179.2c-1.3,0-2.4,0.4-3.1,1.3
			c-0.8,0.8-1.2,2-1.3,3.6h8.8c0-1.5-0.4-2.7-1.2-3.6C66.1,179.6,65.1,179.2,63.7,179.2z"/>
		<path class="st2" d="M88.2,193.5c1.1,0,2.4-0.2,3.9-0.7v4.7c-1.6,0.7-3.5,1-5.7,1c-2.5,0-4.3-0.6-5.5-1.9
			c-1.1-1.3-1.7-3.2-1.7-5.7v-11.1h-3v-2.6l3.4-2.1l1.8-4.8h4v4.9h6.4v4.7h-6.3V191c0,0.9,0.2,1.5,0.7,2
			C86.7,193.3,87.4,193.5,88.2,193.5z"/>
		<path class="st2" d="M112.3,191.3c0,2.4-0.8,4.1-2.4,5.4s-4.1,1.8-7.3,1.8c-1.7,0-3.1-0.1-4.3-0.3s-2.3-0.6-3.3-1V192
			c1.2,0.5,2.5,1,3.9,1.4c1.5,0.4,2.7,0.6,3.8,0.6c2.3,0,3.4-0.7,3.4-2c0-0.5-0.2-0.9-0.5-1.2s-0.8-0.7-1.6-1
			c-0.7-0.4-1.7-0.8-2.9-1.4c-1.8-0.7-3-1.4-3.9-2.1s-1.4-1.3-1.8-2.2s-0.6-1.8-0.6-3c0-2,0.8-3.6,2.4-4.7c1.6-1.1,3.8-1.7,6.7-1.7
			c2.8,0,5.4,0.6,8,1.8L110,181c-1.1-0.5-2.2-0.9-3.2-1.2s-2-0.5-3-0.5c-1.8,0-2.8,0.5-2.8,1.5c0,0.6,0.3,1,0.9,1.5
			c0.6,0.4,1.9,1,3.9,1.8c1.8,0.7,3.1,1.4,3.9,2c0.8,0.6,1.4,1.4,1.8,2.2S112.3,190.1,112.3,191.3z"/>
		<path class="st2" d="M139.8,179.8h-5.4v18.3h-6.2v-18.2h-3.4v-3l3.4-1.7v-1.7c0-2.6,0.6-4.5,1.9-5.7s3.3-1.8,6.2-1.8
			c2.2,0,4.1,0.3,5.7,1l-1.6,4.6c-1.3-0.4-2.4-0.6-3.5-0.6c-0.9,0-1.5,0.3-1.9,0.8s-0.6,1.2-0.6,2v1.4h5.4L139.8,179.8L139.8,179.8z
			 M143.2,169.2c0-2,1.1-3.1,3.4-3.1c2.3,0,3.4,1,3.4,3.1c0,1-0.3,1.7-0.8,2.3c-0.6,0.5-1.4,0.8-2.5,0.8
			C144.3,172.3,143.2,171.3,143.2,169.2z M149.7,198.1h-6.2v-23h6.2V198.1z"/>
		<path class="st2" d="M168.5,174.7c0.8,0,1.5,0.1,2.1,0.2l-0.5,5.9c-0.5-0.1-1.1-0.2-1.8-0.2c-2,0-3.5,0.5-4.7,1.5
			c-1.1,1-1.7,2.5-1.7,4.3v11.7h-6.2v-23h4.7l0.9,3.9h0.3c0.7-1.3,1.7-2.3,2.9-3.1C165.8,175.1,167.1,174.7,168.5,174.7z"/>
		<path class="st2" d="M190.3,191.3c0,2.4-0.8,4.1-2.4,5.4s-4.1,1.8-7.3,1.8c-1.7,0-3.1-0.1-4.3-0.3s-2.3-0.6-3.3-1V192
			c1.2,0.5,2.5,1,3.9,1.4c1.5,0.4,2.7,0.6,3.8,0.6c2.3,0,3.4-0.7,3.4-2c0-0.5-0.2-0.9-0.5-1.2s-0.8-0.7-1.6-1
			c-0.7-0.4-1.7-0.8-2.9-1.4c-1.8-0.7-3-1.4-3.9-2.1s-1.4-1.3-1.8-2.2s-0.6-1.8-0.6-3c0-2,0.8-3.6,2.4-4.7c1.6-1.1,3.8-1.7,6.7-1.7
			c2.8,0,5.4,0.6,8,1.8L188,181c-1.1-0.5-2.2-0.9-3.2-1.2s-2-0.5-3-0.5c-1.8,0-2.8,0.5-2.8,1.5c0,0.6,0.3,1,0.9,1.5
			c0.6,0.4,1.9,1,3.9,1.8c1.8,0.7,3.1,1.4,3.9,2c0.8,0.6,1.4,1.4,1.8,2.2S190.3,190.1,190.3,191.3z"/>
		<path class="st2" d="M204.4,193.5c1.1,0,2.4-0.2,3.9-0.7v4.7c-1.6,0.7-3.5,1-5.7,1c-2.5,0-4.3-0.6-5.5-1.9
			c-1.1-1.3-1.7-3.2-1.7-5.7v-11.1h-3v-2.6l3.4-2.1l1.8-4.8h4v4.9h6.4v4.7h-6.4V191c0,0.9,0.2,1.5,0.7,2
			C202.9,193.3,203.6,193.5,204.4,193.5z"/>
	</g>
	<g>
		<path class="st1" d="M82.8,146.6c-6.7-12.9-4.1-24.2,0.9-54.3c3.9-23.5,25.2-33.7,44.5-21.9c22,13.3,37.6,22,42.9,32.7
			c5.2,10.6-2.3,16.1-13.8,21.6c-11.6,5.5-18.8-4.7-29.8,0.7c-9.6,4.7-7.7,18-20.6,24.4C93.4,156.4,87.1,154.9,82.8,146.6z"/>
		<ellipse transform="matrix(0.897 -0.442 0.442 0.897 -36.4444 37.1788)" class="st1" cx="61.6" cy="96.8" rx="13.2" ry="17.2"/>
		<ellipse transform="matrix(0.897 -0.442 0.442 0.897 -11.4517 70.6261)" class="st1" cx="145.8" cy="59.9" rx="13.2" ry="17.2"/>
		<ellipse transform="matrix(0.897 -0.442 0.442 0.897 -17.7209 36.9457)" class="st1" cx="70.4" cy="56.5" rx="15.1" ry="19.3"/>
		<ellipse transform="matrix(0.897 -0.442 0.442 0.897 -6.7294 51.3033)" class="st1" cx="106.7" cy="40.1" rx="15.1" ry="19.3"/>
		<polygon class="st4" points="129.2,84.3 117.4,90.6 111.5,79.4 99.3,85.9 105.2,97 93.9,103 100.4,115.2 111.7,109.2 118.1,121.1 
			130.2,114.7 123.9,102.7 135.7,96.4 		"/>
	</g>
</g>
</svg>
