<?xml version="1.0" encoding="utf-8"?>
<!-- Generator: Adobe Illustrator 23.0.0, SVG Export Plug-In . SVG Version: 6.00 Build 0)  -->
<svg version="1.1" id="Layer_1" xmlns="http://www.w3.org/2000/svg" xmlns:xlink="http://www.w3.org/1999/xlink" x="0px" y="0px"
	 viewBox="0 0 792 612" style="enable-background:new 0 0 792 612;" xml:space="preserve">
<style type="text/css">
	.st0{fill:#334051;}
	.st1{fill:#F8A076;}
	.st2{fill:#FFFFFF;}
	.st3{fill:#F8A076;stroke:#334051;stroke-width:4;stroke-linejoin:round;stroke-miterlimit:10;}
	.st4{fill:#FFFFFF;stroke:#334051;stroke-width:4;stroke-linejoin:round;stroke-miterlimit:10;}
	.st5{fill:#F8A076;stroke:#334051;stroke-width:2.8961;stroke-linejoin:round;stroke-miterlimit:10;}
</style>
<g>
	<g>
		<path class="st0" d="M548.4,182.2c-2.7,0-4.8-1-6.3-2.9h-0.3c0.2,1.9,0.3,3,0.3,3.3v9.3h-6.2v-33h5.1l0.9,3h0.3
			c1.5-2.3,3.6-3.4,6.5-3.4c2.7,0,4.8,1,6.3,3.1s2.3,5,2.3,8.7c0,2.4-0.4,4.6-1.1,6.4s-1.7,3.2-3.1,4.1
			C551.7,181.7,550.2,182.2,548.4,182.2z M546.6,163.4c-1.5,0-2.7,0.5-3.4,1.4c-0.7,1-1.1,2.5-1.1,4.7v0.7c0,2.5,0.4,4.2,1.1,5.3
			c0.7,1.1,1.9,1.6,3.5,1.6c2.8,0,4.2-2.3,4.2-6.9c0-2.3-0.3-3.9-1-5.1C549.1,164,548.1,163.4,546.6,163.4z"/>
		<path class="st0" d="M572.2,182.2c-3.7,0-6.6-1-8.6-3.1s-3.1-4.9-3.1-8.7s1-6.8,2.9-8.9c1.9-2.1,4.6-3.1,7.9-3.1
			c3.2,0,5.7,0.9,7.5,2.8c1.8,1.8,2.7,4.4,2.7,7.6v3h-14.7c0.1,1.8,0.6,3.2,1.6,4.2s2.4,1.5,4.1,1.5c1.4,0,2.7-0.1,3.9-0.4
			c1.2-0.3,2.5-0.7,3.8-1.4v4.8c-1.1,0.5-2.3,1-3.5,1.2C575.6,182,574.1,182.2,572.2,182.2z M571.4,162.9c-1.3,0-2.4,0.4-3.1,1.3
			c-0.8,0.8-1.2,2-1.3,3.6h8.8c0-1.5-0.4-2.7-1.2-3.6S572.8,162.9,571.4,162.9z"/>
		<path class="st0" d="M595.9,177.2c1.1,0,2.4-0.2,3.9-0.7v4.7c-1.6,0.7-3.5,1-5.7,1c-2.5,0-4.3-0.6-5.5-1.9
			c-1.1-1.3-1.7-3.2-1.7-5.7v-11.1h-3v-2.6l3.4-2.1l1.8-4.8h4v4.9h6.4v4.7h-6.3v11.1c0,0.9,0.2,1.5,0.7,2
			C594.4,177,595.1,177.2,595.9,177.2z"/>
		<path class="st0" d="M620,175c0,2.4-0.8,4.1-2.4,5.4c-1.6,1.3-4.1,1.8-7.3,1.8c-1.7,0-3.1-0.1-4.3-0.3c-1.2-0.2-2.3-0.6-3.3-1
			v-5.2c1.2,0.5,2.5,1,3.9,1.4c1.5,0.4,2.7,0.6,3.8,0.6c2.3,0,3.4-0.7,3.4-2c0-0.5-0.2-0.9-0.5-1.2c-0.3-0.3-0.8-0.7-1.6-1
			c-0.7-0.4-1.7-0.8-2.9-1.4c-1.8-0.7-3-1.4-3.9-2.1s-1.4-1.3-1.8-2.2c-0.4-0.9-0.6-1.8-0.6-3c0-2,0.8-3.6,2.4-4.7
			c1.6-1.1,3.8-1.7,6.7-1.7c2.8,0,5.4,0.6,8,1.8l-1.9,4.5c-1.1-0.5-2.2-0.9-3.2-1.2s-2-0.5-3-0.5c-1.8,0-2.8,0.5-2.8,1.5
			c0,0.6,0.3,1,0.9,1.5c0.6,0.4,1.9,1,3.9,1.8c1.8,0.7,3.1,1.4,3.9,2c0.8,0.6,1.4,1.4,1.8,2.2C619.6,172.8,620,173.8,620,175z"/>
		<path class="st0" d="M647.5,163.5h-5.4v18.3h-6.2v-18.2h-3.4v-3l3.4-1.7v-1.7c0-2.6,0.6-4.5,1.9-5.7s3.3-1.8,6.2-1.8
			c2.2,0,4.1,0.3,5.7,1l-1.6,4.6c-1.3-0.4-2.4-0.6-3.5-0.6c-0.9,0-1.5,0.3-1.9,0.8s-0.6,1.2-0.6,2v1.4h5.4V163.5L647.5,163.5z
			 M650.9,152.9c0-2,1.1-3.1,3.4-3.1c2.3,0,3.4,1,3.4,3.1c0,1-0.3,1.7-0.8,2.3c-0.6,0.5-1.4,0.8-2.5,0.8
			C652,156,650.9,155,650.9,152.9z M657.4,181.8h-6.2v-23h6.2V181.8z"/>
		<path class="st0" d="M676.2,158.4c0.8,0,1.5,0.1,2.1,0.2l-0.5,5.9c-0.5-0.1-1.1-0.2-1.8-0.2c-2,0-3.5,0.5-4.7,1.5
			c-1.1,1-1.7,2.5-1.7,4.3v11.7h-6.2v-23h4.7l0.9,3.9h0.3c0.7-1.3,1.7-2.3,2.9-3.1C673.5,158.8,674.8,158.4,676.2,158.4z"/>
		<path class="st0" d="M698,175c0,2.4-0.8,4.1-2.4,5.4c-1.6,1.3-4.1,1.8-7.3,1.8c-1.7,0-3.1-0.1-4.3-0.3c-1.2-0.2-2.3-0.6-3.3-1
			v-5.2c1.2,0.5,2.5,1,3.9,1.4c1.5,0.4,2.7,0.6,3.8,0.6c2.3,0,3.4-0.7,3.4-2c0-0.5-0.2-0.9-0.5-1.2c-0.3-0.3-0.8-0.7-1.6-1
			c-0.7-0.4-1.7-0.8-2.9-1.4c-1.8-0.7-3-1.4-3.9-2.1s-1.4-1.3-1.8-2.2c-0.4-0.9-0.6-1.8-0.6-3c0-2,0.8-3.6,2.4-4.7
			c1.6-1.1,3.8-1.7,6.7-1.7c2.8,0,5.4,0.6,8,1.8l-1.9,4.5c-1.1-0.5-2.2-0.9-3.2-1.2s-2-0.5-3-0.5c-1.8,0-2.8,0.5-2.8,1.5
			c0,0.6,0.3,1,0.9,1.5c0.6,0.4,1.9,1,3.9,1.8c1.8,0.7,3.1,1.4,3.9,2c0.8,0.6,1.4,1.4,1.8,2.2C697.6,172.8,698,173.8,698,175z"/>
		<path class="st0" d="M712.1,177.2c1.1,0,2.4-0.2,3.9-0.7v4.7c-1.6,0.7-3.5,1-5.7,1c-2.5,0-4.3-0.6-5.5-1.9
			c-1.1-1.3-1.7-3.2-1.7-5.7v-11.1h-3v-2.6l3.4-2.1l1.8-4.8h4v4.9h6.4v4.7h-6.4v11.1c0,0.9,0.2,1.5,0.7,2
			C710.6,177,711.2,177.2,712.1,177.2z"/>
	</g>
	<g>
		<path class="st1" d="M590.5,130.3c-6.7-12.9-4.1-24.2,0.9-54.3c3.9-23.5,25.2-33.7,44.5-21.9c22,13.3,37.6,22,42.9,32.7
			c5.2,10.6-2.3,16.1-13.8,21.6c-11.6,5.5-18.8-4.7-29.8,0.7c-9.6,4.7-7.7,18-20.6,24.4C601.1,140.1,594.8,138.6,590.5,130.3z"/>
		<ellipse transform="matrix(0.897 -0.442 0.442 0.897 23.0361 259.9081)" class="st1" cx="569.3" cy="80.5" rx="13.2" ry="17.2"/>
		<ellipse transform="matrix(0.897 -0.442 0.442 0.897 48.0288 293.3553)" class="st1" cx="653.5" cy="43.6" rx="13.2" ry="17.2"/>
		<ellipse transform="matrix(0.897 -0.442 0.442 0.897 41.7596 259.6749)" class="st1" cx="578.1" cy="40.2" rx="15.1" ry="19.3"/>
		<ellipse transform="matrix(0.897 -0.442 0.442 0.897 52.7511 274.0325)" class="st1" cx="614.4" cy="23.8" rx="15.1" ry="19.3"/>
		<polygon class="st4" points="636.9,68 625.1,74.3 619.2,63.1 607,69.6 612.9,80.7 601.6,86.7 608.1,98.9 619.4,92.9 625.8,104.8 
			637.9,98.4 631.6,86.4 643.4,80.1 		"/>
	</g>
</g>
<g>
	<g>
		<path class="st2" d="M548.4,371.7c-2.7,0-4.8-1-6.3-2.9h-0.3c0.2,1.9,0.3,3,0.3,3.3v9.3h-6.2v-33h5.1l0.9,3h0.3
			c1.5-2.3,3.6-3.4,6.5-3.4c2.7,0,4.8,1,6.3,3.1s2.3,5,2.3,8.7c0,2.4-0.4,4.6-1.1,6.4s-1.7,3.2-3.1,4.1
			C551.7,371.2,550.2,371.7,548.4,371.7z M546.6,352.9c-1.5,0-2.7,0.5-3.4,1.4c-0.7,1-1.1,2.5-1.1,4.7v0.7c0,2.5,0.4,4.2,1.1,5.3
			c0.7,1.1,1.9,1.6,3.5,1.6c2.8,0,4.2-2.3,4.2-6.9c0-2.3-0.3-3.9-1-5.1C549.1,353.5,548.1,352.9,546.6,352.9z"/>
		<path class="st2" d="M572.2,371.7c-3.7,0-6.6-1-8.6-3.1s-3.1-4.9-3.1-8.7c0-3.8,1-6.8,2.9-8.9s4.6-3.1,7.9-3.1
			c3.2,0,5.7,0.9,7.5,2.8c1.8,1.8,2.7,4.4,2.7,7.6v3h-14.7c0.1,1.8,0.6,3.2,1.6,4.2s2.4,1.5,4.1,1.5c1.4,0,2.7-0.1,3.9-0.4
			c1.2-0.3,2.5-0.7,3.8-1.4v4.8c-1.1,0.5-2.3,1-3.5,1.2C575.6,371.5,574.1,371.7,572.2,371.7z M571.4,352.4c-1.3,0-2.4,0.4-3.1,1.3
			c-0.8,0.8-1.2,2-1.3,3.6h8.8c0-1.5-0.4-2.7-1.2-3.6C573.8,352.8,572.8,352.4,571.4,352.4z"/>
		<path class="st2" d="M595.9,366.7c1.1,0,2.4-0.2,3.9-0.7v4.7c-1.6,0.7-3.5,1-5.7,1c-2.5,0-4.3-0.6-5.5-1.9
			c-1.1-1.3-1.7-3.2-1.7-5.7V353h-3v-2.6l3.4-2.1l1.8-4.8h4v4.9h6.4v4.7h-6.3v11.1c0,0.9,0.2,1.5,0.7,2
			C594.4,366.5,595.1,366.7,595.9,366.7z"/>
		<path class="st2" d="M620,364.5c0,2.4-0.8,4.1-2.4,5.4c-1.6,1.3-4.1,1.8-7.3,1.8c-1.7,0-3.1-0.1-4.3-0.3c-1.2-0.2-2.3-0.6-3.3-1
			v-5.2c1.2,0.5,2.5,1,3.9,1.4c1.5,0.4,2.7,0.6,3.8,0.6c2.3,0,3.4-0.7,3.4-2c0-0.5-0.2-0.9-0.5-1.2c-0.3-0.3-0.8-0.7-1.6-1
			c-0.7-0.4-1.7-0.8-2.9-1.4c-1.8-0.7-3-1.4-3.9-2.1s-1.4-1.3-1.8-2.2c-0.4-0.9-0.6-1.8-0.6-3c0-2,0.8-3.6,2.4-4.7s3.8-1.7,6.7-1.7
			c2.8,0,5.4,0.6,8,1.8l-1.9,4.5c-1.1-0.5-2.2-0.9-3.2-1.2c-1-0.3-2-0.5-3-0.5c-1.8,0-2.8,0.5-2.8,1.5c0,0.6,0.3,1,0.9,1.5
			c0.6,0.4,1.9,1,3.9,1.8c1.8,0.7,3.1,1.4,3.9,2c0.8,0.6,1.4,1.4,1.8,2.2C619.6,362.3,620,363.3,620,364.5z"/>
		<path class="st2" d="M647.5,353h-5.4v18.3h-6.2v-18.2h-3.4v-3l3.4-1.7v-1.7c0-2.6,0.6-4.5,1.9-5.7c1.3-1.2,3.3-1.8,6.2-1.8
			c2.2,0,4.1,0.3,5.7,1l-1.6,4.6c-1.3-0.4-2.4-0.6-3.5-0.6c-0.9,0-1.5,0.3-1.9,0.8s-0.6,1.2-0.6,2v1.4h5.4V353L647.5,353z
			 M650.9,342.4c0-2,1.1-3.1,3.4-3.1c2.3,0,3.4,1,3.4,3.1c0,1-0.3,1.7-0.8,2.3c-0.6,0.5-1.4,0.8-2.5,0.8
			C652,345.5,650.9,344.5,650.9,342.4z M657.4,371.3h-6.2v-23h6.2V371.3z"/>
		<path class="st2" d="M676.2,347.9c0.8,0,1.5,0.1,2.1,0.2l-0.5,5.9c-0.5-0.1-1.1-0.2-1.8-0.2c-2,0-3.5,0.5-4.7,1.5
			c-1.1,1-1.7,2.5-1.7,4.3v11.7h-6.2v-23h4.7l0.9,3.9h0.3c0.7-1.3,1.7-2.3,2.9-3.1C673.5,348.3,674.8,347.9,676.2,347.9z"/>
		<path class="st2" d="M698,364.5c0,2.4-0.8,4.1-2.4,5.4c-1.6,1.3-4.1,1.8-7.3,1.8c-1.7,0-3.1-0.1-4.3-0.3c-1.2-0.2-2.3-0.6-3.3-1
			v-5.2c1.2,0.5,2.5,1,3.9,1.4c1.5,0.4,2.7,0.6,3.8,0.6c2.3,0,3.4-0.7,3.4-2c0-0.5-0.2-0.9-0.5-1.2c-0.3-0.3-0.8-0.7-1.6-1
			c-0.7-0.4-1.7-0.8-2.9-1.4c-1.8-0.7-3-1.4-3.9-2.1s-1.4-1.3-1.8-2.2c-0.4-0.9-0.6-1.8-0.6-3c0-2,0.8-3.6,2.4-4.7s3.8-1.7,6.7-1.7
			c2.8,0,5.4,0.6,8,1.8l-1.9,4.5c-1.1-0.5-2.2-0.9-3.2-1.2c-1-0.3-2-0.5-3-0.5c-1.8,0-2.8,0.5-2.8,1.5c0,0.6,0.3,1,0.9,1.5
			c0.6,0.4,1.9,1,3.9,1.8c1.8,0.7,3.1,1.4,3.9,2c0.8,0.6,1.4,1.4,1.8,2.2C697.6,362.3,698,363.3,698,364.5z"/>
		<path class="st2" d="M712.1,366.7c1.1,0,2.4-0.2,3.9-0.7v4.7c-1.6,0.7-3.5,1-5.7,1c-2.5,0-4.3-0.6-5.5-1.9
			c-1.1-1.3-1.7-3.2-1.7-5.7V353h-3v-2.6l3.4-2.1l1.8-4.8h4v4.9h6.4v4.7h-6.4v11.1c0,0.9,0.2,1.5,0.7,2
			C710.6,366.5,711.2,366.7,712.1,366.7z"/>
	</g>
	<g>
		<path class="st1" d="M590.5,319.8c-6.7-12.9-4.1-24.2,0.9-54.3c3.9-23.5,25.2-33.7,44.5-21.9c22,13.3,37.6,22,42.9,32.7
			c5.2,10.6-2.3,16.1-13.8,21.6c-11.6,5.5-18.8-4.7-29.8,0.7c-9.6,4.7-7.7,18-20.6,24.4C601.1,329.6,594.8,328.1,590.5,319.8z"/>
		<ellipse transform="matrix(0.897 -0.442 0.442 0.897 -60.6985 279.4183)" class="st1" cx="569.3" cy="270" rx="13.2" ry="17.2"/>
		
			<ellipse transform="matrix(0.897 -0.442 0.442 0.897 -35.7058 312.8656)" class="st1" cx="653.5" cy="233.1" rx="13.2" ry="17.2"/>
		<ellipse transform="matrix(0.897 -0.442 0.442 0.897 -41.975 279.1852)" class="st1" cx="578.1" cy="229.7" rx="15.1" ry="19.3"/>
		
			<ellipse transform="matrix(0.897 -0.442 0.442 0.897 -30.9834 293.5428)" class="st1" cx="614.4" cy="213.3" rx="15.1" ry="19.3"/>
		<polygon class="st4" points="636.9,257.5 625.1,263.8 619.2,252.6 607,259.1 612.9,270.2 601.6,276.2 608.1,288.4 619.4,282.4 
			625.8,294.3 637.9,287.9 631.6,275.9 643.4,269.6 		"/>
	</g>
</g>
<g>
	<g>
		<path class="st0" d="M258.2,142.1c-6.2,0-11.1-2.3-14.7-6.8h-0.8c0.5,4.5,0.8,7,0.8,7.7v21.6H229V87.9h11.8l2.1,6.9h0.7
			c3.4-5.3,8.4-7.9,15-7.9c6.3,0,11.1,2.4,14.7,7.3c3.6,4.8,5.3,11.6,5.3,20.2c0,5.7-0.8,10.7-2.5,14.8c-1.6,4.2-4,7.3-7.1,9.5
			C266,141,262.4,142.1,258.2,142.1z M254,98.6c-3.6,0-6.2,1.1-7.8,3.3c-1.6,2.2-2.5,5.9-2.5,10.9v1.6c0,5.7,0.8,9.9,2.5,12.3
			c1.7,2.5,4.4,3.7,8,3.7c6.5,0,9.8-5.4,9.8-16.1c0-5.3-0.8-9.2-2.4-11.8S257.4,98.6,254,98.6z"/>
		<path class="st0" d="M313.8,142.1c-8.5,0-15.3-2.4-20.1-7.1c-4.8-4.7-7.2-11.5-7.2-20.1c0-9,2.2-15.8,6.7-20.7
			c4.5-4.8,10.6-7.3,18.5-7.3c7.5,0,13.3,2.2,17.6,6.4c4.2,4.2,6.3,10.2,6.3,17.8v7h-34.2c0.1,4.1,1.4,7.3,3.7,9.6s5.5,3.4,9.6,3.4
			c3.2,0,6.2-0.3,9.1-1s5.9-1.7,9-3.2v11.3c-2.5,1.3-5.3,2.2-8.2,2.9C321.4,141.8,317.9,142.1,313.8,142.1z M311.7,97.2
			c-3.1,0-5.5,1-7.2,3s-2.8,4.7-3,8.3h20.3c-0.1-3.6-1-6.3-2.8-8.3S314.7,97.2,311.7,97.2z"/>
		<path class="st0" d="M368.6,130.6c2.5,0,5.6-0.6,9.1-1.7v10.8c-3.6,1.6-8,2.4-13.3,2.4c-5.7,0-10-1.5-12.6-4.4
			c-2.6-3-4-7.3-4-13.2V98.8h-6.9v-6.2l8-4.8l4.1-11.3h9.3v11.4h14.9v10.9h-14.9v25.7c0,2.1,0.6,3.6,1.7,4.6
			C365.1,130,366.7,130.6,368.6,130.6z"/>
		<path class="st0" d="M424.6,125.3c0,5.5-1.8,9.6-5.6,12.5c-3.8,2.9-9.4,4.2-17,4.2c-3.9,0-7.1-0.2-9.9-0.8s-5.3-1.3-7.7-2.3v-12.1
			c2.6,1.3,5.7,2.3,9.1,3.2s6.3,1.3,9,1.3c5.3,0,7.9-1.5,7.9-4.6c0-1.1-0.3-2.1-1-2.8c-0.7-0.7-2-1.5-3.6-2.4c-1.7-0.9-4-2-6.9-3.2
			c-4.1-1.7-7.1-3.3-9-4.8c-2-1.5-3.3-3.1-4.1-5.1c-0.8-2-1.3-4.2-1.3-7c0-4.7,1.8-8.4,5.5-11s8.8-3.9,15.6-3.9
			c6.4,0,12.6,1.4,18.7,4.2l-4.4,10.4c-2.6-1.1-5.2-2.1-7.5-2.8c-2.3-0.7-4.7-1.1-7.1-1.1c-4.2,0-6.4,1.1-6.4,3.4
			c0,1.3,0.7,2.4,2.1,3.3s4.4,2.4,9.1,4.2c4.1,1.7,7.2,3.2,9.1,4.7c2,1.5,3.3,3.1,4.2,5.1C424.1,120.5,424.6,122.7,424.6,125.3z"/>
		<path class="st0" d="M260.4,199.8h-12.5v42.4h-14.5v-42.4h-8v-7l8-3.9V185c0-6.1,1.5-10.4,4.5-13.3c3-2.8,7.7-4.2,14.4-4.2
			c5.1,0,9.4,0.8,13.3,2.3l-3.7,10.7c-2.9-0.9-5.6-1.4-8-1.4c-2.1,0-3.6,0.6-4.5,1.8c-0.9,1.3-1.4,2.8-1.4,4.7v3.3h12.5L260.4,199.8
			L260.4,199.8z M268.1,175.1c0-4.7,2.6-7.1,7.9-7.1s7.9,2.4,7.9,7.1c0,2.3-0.7,4-2,5.3s-3.3,1.8-6,1.8
			C270.7,182.2,268.1,180,268.1,175.1z M283.3,242.2h-14.5v-53.3h14.5V242.2z"/>
		<path class="st0" d="M327,187.9c2,0,3.6,0.1,4.9,0.5l-1.1,13.7c-1.1-0.3-2.6-0.5-4.2-0.5c-4.6,0-8.3,1.1-10.8,3.6
			c-2.5,2.4-3.9,5.7-3.9,10v27.1h-14.5V189h11l2.2,9h0.7c1.6-3,3.9-5.4,6.7-7.2C320.7,188.8,323.8,187.9,327,187.9z"/>
		<path class="st0" d="M377.6,226.3c0,5.5-1.8,9.6-5.6,12.5c-3.8,2.9-9.4,4.2-17,4.2c-3.9,0-7.1-0.2-9.9-0.8s-5.3-1.3-7.7-2.3v-12.1
			c2.6,1.3,5.7,2.3,9.1,3.2c3.3,0.9,6.3,1.3,9,1.3c5.3,0,7.9-1.5,7.9-4.6c0-1.1-0.3-2.1-1-2.8s-2-1.5-3.6-2.4c-1.7-0.9-4-2-6.9-3.2
			c-4.1-1.7-7.1-3.3-9-4.8c-2-1.5-3.3-3.1-4.1-5.1c-0.8-2-1.3-4.2-1.3-7c0-4.7,1.8-8.4,5.5-11s8.8-3.9,15.6-3.9
			c6.4,0,12.6,1.4,18.7,4.2l-4.4,10.4c-2.6-1.1-5.2-2.1-7.5-2.8s-4.7-1.1-7.1-1.1c-4.2,0-6.4,1.1-6.4,3.4c0,1.3,0.7,2.4,2.1,3.3
			c1.4,0.9,4.4,2.4,9.1,4.2c4.1,1.7,7.2,3.2,9.1,4.7c2,1.5,3.3,3.1,4.2,5.1C377.2,221.5,377.6,223.7,377.6,226.3z"/>
		<path class="st0" d="M410.3,231.6c2.5,0,5.6-0.6,9.1-1.7v10.8c-3.6,1.6-8,2.4-13.3,2.4c-5.7,0-10-1.5-12.6-4.4
			c-2.6-3-4-7.3-4-13.2v-25.7h-6.9v-6.2l8-4.8l4.1-11.3h9.3v11.4h15v10.9h-15v25.7c0,2.1,0.6,3.6,1.7,4.6
			C406.9,231,408.5,231.6,410.3,231.6z"/>
	</g>
	<g>
		<path class="st1" d="M191,244.1H57.8c-9.5,0-17.2-7.7-17.2-17.2V93.7c0-9.5,7.7-17.2,17.2-17.2H191c9.5,0,17.2,7.7,17.2,17.2V227
			C208.2,236.4,200.5,244.1,191,244.1z"/>
		<path class="st2" d="M96.4,220.2c-6.7-12.9-4.1-24.2,0.9-54.3c3.9-23.5,25.2-33.7,44.5-21.9c22,13.3,37.6,22,42.9,32.7
			c5.2,10.6-2.3,16.1-13.8,21.6c-11.6,5.5-18.8-4.7-29.8,0.7c-9.6,4.7-7.7,18-20.6,24.4C107,230,100.7,228.4,96.4,220.2z"/>
		<ellipse transform="matrix(0.897 -0.442 0.442 0.897 -67.5235 50.7759)" class="st2" cx="75.2" cy="170.3" rx="13.2" ry="17.2"/>
		<ellipse transform="matrix(0.897 -0.442 0.442 0.897 -42.5659 84.252)" class="st2" cx="159.5" cy="133.5" rx="13.2" ry="17.2"/>
		<ellipse transform="matrix(0.897 -0.442 0.442 0.897 -48.8351 50.5716)" class="st2" cx="84.1" cy="130.1" rx="15.1" ry="19.3"/>
		<ellipse transform="matrix(0.897 -0.442 0.442 0.897 -37.8435 64.9292)" class="st2" cx="120.4" cy="113.7" rx="15.1" ry="19.3"/>
		<polygon class="st3" points="142.8,157.8 131,164.1 125,153 112.9,159.4 118.8,170.6 107.5,176.6 114,188.7 125.3,182.7 
			131.7,194.7 143.8,188.2 137.4,176.3 149.3,170 		"/>
	</g>
</g>
<g>
	<circle class="st1" cx="598.3" cy="493.2" r="86.8"/>
	<g>
		<path class="st2" d="M573.1,550.6c-6.7-12.9-4.1-24.2,0.9-54.3c3.9-23.5,25.2-33.7,44.5-21.9c22,13.3,37.6,22,42.9,32.7
			c5.2,10.6-2.3,16.1-13.8,21.6c-11.6,5.5-18.8-4.7-29.8,0.7c-9.6,4.7-7.7,18-20.6,24.4C583.7,560.4,577.4,558.8,573.1,550.6z"/>
		
			<ellipse transform="matrix(0.897 -0.442 0.442 0.897 -164.4492 295.4985)" class="st2" cx="551.9" cy="500.6" rx="13.2" ry="17.2"/>
		
			<ellipse transform="matrix(0.897 -0.442 0.442 0.897 -139.5203 328.9394)" class="st2" cx="636.1" cy="463.9" rx="13.2" ry="17.2"/>
		
			<ellipse transform="matrix(0.897 -0.442 0.442 0.897 -145.7608 295.2941)" class="st2" cx="560.8" cy="460.4" rx="15.1" ry="19.3"/>
		<ellipse transform="matrix(0.897 -0.442 0.442 0.897 -134.798 309.6166)" class="st2" cx="597" cy="444.1" rx="15.1" ry="19.3"/>
		<polygon class="st3" points="619.5,488.2 607.7,494.5 601.7,483.4 589.6,489.8 595.5,501 584.2,507 590.7,519.1 602,513.1 
			608.3,525.1 620.5,518.6 614.1,506.7 625.9,500.4 		"/>
	</g>
</g>
<g>
	<g>
		<path class="st1" d="M351.7,515.5c0,2-1.6,3.6-3.6,3.6H97.5c-2,0-3.6-1.6-3.6-3.6V404.2c0-2,1.6-3.6,3.6-3.6h250.6
			c2,0,3.6,1.6,3.6,3.6V515.5z"/>
	</g>
	<g>
		<path class="st2" d="M241.3,448.6c-3.3,0-5.9-1.2-7.8-3.6h-0.4c0.3,2.3,0.4,3.7,0.4,4.1v11.4h-7.7V420h6.2l1.1,3.7h0.4
			c1.8-2.8,4.4-4.2,8-4.2c3.3,0,5.9,1.3,7.8,3.9c1.9,2.6,2.8,6.1,2.8,10.7c0,3-0.4,5.6-1.3,7.8s-2.1,3.9-3.8,5.1
			C245.4,448,243.5,448.6,241.3,448.6z M239,425.6c-1.9,0-3.3,0.6-4.1,1.8c-0.9,1.2-1.3,3.1-1.4,5.8v0.8c0,3,0.4,5.2,1.3,6.5
			c0.9,1.3,2.3,2,4.3,2c3.4,0,5.1-2.8,5.1-8.5c0-2.8-0.4-4.8-1.3-6.2C242.2,426.3,240.8,425.6,239,425.6z"/>
		<path class="st2" d="M270.6,448.6c-4.5,0-8.1-1.3-10.6-3.8s-3.8-6-3.8-10.6c0-4.7,1.2-8.4,3.5-10.9c2.4-2.6,5.6-3.9,9.8-3.9
			c4,0,7.1,1.1,9.3,3.4c2.2,2.3,3.3,5.4,3.3,9.4v3.7H264c0.1,2.2,0.7,3.9,1.9,5.1c1.2,1.2,2.9,1.8,5.1,1.8c1.7,0,3.3-0.2,4.8-0.5
			c1.5-0.4,3.1-0.9,4.7-1.7v5.9c-1.3,0.7-2.8,1.2-4.3,1.5C274.7,448.5,272.8,448.6,270.6,448.6z M269.5,424.9
			c-1.6,0-2.9,0.5-3.8,1.5s-1.4,2.5-1.6,4.4h10.7c0-1.9-0.5-3.4-1.5-4.4S271.2,424.9,269.5,424.9z"/>
		<path class="st2" d="M299.6,442.5c1.3,0,2.9-0.3,4.8-0.9v5.7c-1.9,0.9-4.3,1.3-7,1.3c-3.1,0-5.3-0.8-6.7-2.3s-2.1-3.9-2.1-7v-13.6
			h-3.7v-3.2l4.2-2.6l2.2-5.9h4.9v6h7.9v5.8h-7.9v13.6c0,1.1,0.3,1.9,0.9,2.4S298.6,442.5,299.6,442.5z"/>
		<path class="st2" d="M329.2,439.8c0,2.9-1,5.1-3,6.6s-5,2.3-9,2.3c-2,0-3.8-0.1-5.2-0.4c-1.4-0.3-2.8-0.7-4-1.2v-6.3
			c1.4,0.7,3,1.2,4.8,1.7s3.4,0.7,4.7,0.7c2.8,0,4.2-0.8,4.2-2.4c0-0.6-0.2-1.1-0.6-1.5s-1-0.8-1.9-1.3s-2.1-1-3.6-1.7
			c-2.2-0.9-3.7-1.7-4.8-2.5c-1-0.8-1.7-1.7-2.2-2.7s-0.7-2.2-0.7-3.7c0-2.5,1-4.4,2.9-5.8s4.7-2.1,8.2-2.1c3.4,0,6.7,0.7,9.9,2.2
			l-2.3,5.5c-1.4-0.6-2.7-1.1-3.9-1.5c-1.2-0.4-2.5-0.6-3.7-0.6c-2.3,0-3.4,0.6-3.4,1.8c0,0.7,0.4,1.3,1.1,1.8s2.3,1.3,4.8,2.2
			c2.2,0.9,3.8,1.7,4.8,2.5s1.8,1.7,2.3,2.7C328.9,437.2,329.2,438.4,329.2,439.8z"/>
		<path class="st2" d="M241.4,482.2h-6.6v22.4h-7.7v-22.4h-4.2v-3.7l4.2-2.1v-2.1c0-3.2,0.8-5.5,2.4-7c1.6-1.5,4.1-2.2,7.6-2.2
			c2.6,0,5,0.4,7.1,1.2l-2,5.6c-1.5-0.5-3-0.7-4.3-0.7c-1.1,0-1.9,0.3-2.4,1c-0.5,0.6-0.7,1.5-0.7,2.5v1.8h6.6L241.4,482.2
			L241.4,482.2z M245.5,469.2c0-2.5,1.4-3.8,4.2-3.8s4.2,1.2,4.2,3.8c0,1.2-0.3,2.1-1,2.8s-1.7,1-3.1,1
			C246.9,472.9,245.5,471.7,245.5,469.2z M253.5,504.6h-7.7v-28.2h7.7V504.6z"/>
		<path class="st2" d="M276.6,475.9c1,0,1.9,0.1,2.6,0.2l-0.6,7.2c-0.6-0.2-1.4-0.3-2.3-0.3c-2.4,0-4.3,0.6-5.7,1.9
			c-1.4,1.3-2,3-2,5.3v14.3h-7.7v-28.2h5.8l1.1,4.7h0.4c0.9-1.6,2-2.8,3.5-3.8C273.3,476.4,274.9,475.9,276.6,475.9z"/>
		<path class="st2" d="M303.4,496.2c0,2.9-1,5.1-3,6.6s-5,2.3-9,2.3c-2,0-3.8-0.1-5.2-0.4c-1.4-0.3-2.8-0.7-4-1.2v-6.3
			c1.4,0.7,3,1.2,4.8,1.7s3.4,0.7,4.7,0.7c2.8,0,4.2-0.8,4.2-2.4c0-0.6-0.2-1.1-0.6-1.5s-1-0.8-1.9-1.3s-2.1-1-3.6-1.7
			c-2.2-0.9-3.7-1.7-4.8-2.5c-1-0.8-1.7-1.7-2.2-2.7s-0.7-2.2-0.7-3.7c0-2.5,1-4.4,2.9-5.8s4.7-2.1,8.2-2.1c3.4,0,6.7,0.7,9.9,2.2
			l-2.3,5.5c-1.4-0.6-2.7-1.1-3.9-1.5c-1.2-0.4-2.5-0.6-3.7-0.6c-2.3,0-3.4,0.6-3.4,1.8c0,0.7,0.4,1.3,1.1,1.8s2.3,1.3,4.8,2.2
			c2.2,0.9,3.8,1.7,4.8,2.5s1.8,1.7,2.3,2.7C303.1,493.6,303.4,494.8,303.4,496.2z"/>
		<path class="st2" d="M320.7,499c1.3,0,2.9-0.3,4.8-0.9v5.7c-1.9,0.9-4.3,1.3-7,1.3c-3.1,0-5.3-0.8-6.7-2.3s-2.1-3.9-2.1-7v-13.6
			H306V479l4.2-2.6l2.2-5.9h4.9v6h7.9v5.8h-7.9v13.6c0,1.1,0.3,1.9,0.9,2.4S319.6,499,320.7,499z"/>
	</g>
	<g>
		<path class="st2" d="M133.7,505c-4.9-9.3-3-17.5,0.7-39.3c2.8-17,18.2-24.4,32.2-15.9c16,9.6,27.2,15.9,31,23.7
			c3.8,7.7-1.6,11.7-10,15.7s-13.6-3.4-21.6,0.5c-7,3.4-5.6,13-14.9,17.6C141.3,512.1,136.8,511,133.7,505z"/>
		
			<ellipse transform="matrix(0.897 -0.442 0.442 0.897 -195.0646 100.5778)" class="st2" cx="118.3" cy="468.9" rx="9.5" ry="12.4"/>
		
			<ellipse transform="matrix(0.897 -0.442 0.442 0.897 -176.9852 124.7868)" class="st2" cx="179.3" cy="442.2" rx="9.5" ry="12.4"/>
		<ellipse transform="matrix(0.897 -0.442 0.442 0.897 -181.5482 100.416)" class="st2" cx="124.7" cy="439.8" rx="10.9" ry="14"/>
		<ellipse transform="matrix(0.897 -0.442 0.442 0.897 -173.5759 110.8102)" class="st2" cx="151" cy="427.9" rx="10.9" ry="14"/>
		<polygon class="st5" points="167.2,459.9 158.7,464.4 154.4,456.4 145.6,461 149.9,469.1 141.7,473.5 146.4,482.3 154.6,477.9 
			159.2,486.6 168,481.9 163.4,473.2 171.9,468.7 		"/>
	</g>
</g>
</svg>
