<?xml version="1.0" encoding="utf-8"?>
<!-- Generator: Adobe Illustrator 23.0.0, SVG Export Plug-In . SVG Version: 6.00 Build 0)  -->
<svg version="1.1" id="Layer_1" xmlns="http://www.w3.org/2000/svg" xmlns:xlink="http://www.w3.org/1999/xlink" x="0px" y="0px"
	 viewBox="0 0 236.4 229.8" style="enable-background:new 0 0 236.4 229.8;" xml:space="preserve">
<style type="text/css">
	.st0{fill:#334051;}
	.st1{fill:#F8A076;}
	.st2{fill:#FFFFFF;}
	.st3{fill:#F8A076;stroke:#334051;stroke-width:4;stroke-linejoin:round;stroke-miterlimit:10;}
	.st4{fill:#FFFFFF;stroke:#334051;stroke-width:4;stroke-linejoin:round;stroke-miterlimit:10;}
	.st5{fill:#F8A076;stroke:#334051;stroke-width:2.8961;stroke-linejoin:round;stroke-miterlimit:10;}
</style>
<g>
	<circle class="st1" cx="114.8" cy="114.9" r="86.8"/>
	<g>
		<path class="st2" d="M89.6,172.3c-6.7-12.9-4.1-24.2,0.9-54.3c3.9-23.5,25.2-33.7,44.5-21.9c22,13.3,37.6,22,42.9,32.7
			c5.2,10.6-2.3,16.1-13.8,21.6c-11.6,5.5-18.8-4.7-29.8,0.7c-9.6,4.7-7.7,18-20.6,24.4C100.2,182.1,93.9,180.5,89.6,172.3z"/>
		<ellipse transform="matrix(0.897 -0.442 0.442 0.897 -47.0338 42.8063)" class="st2" cx="68.3" cy="122.3" rx="13.2" ry="17.2"/>
		<ellipse transform="matrix(0.897 -0.442 0.442 0.897 -22.105 76.2472)" class="st2" cx="152.6" cy="85.6" rx="13.2" ry="17.2"/>
		<ellipse transform="matrix(0.897 -0.442 0.442 0.897 -28.3454 42.6019)" class="st2" cx="77.2" cy="82.1" rx="15.1" ry="19.3"/>
		<ellipse transform="matrix(0.897 -0.442 0.442 0.897 -17.3826 56.9244)" class="st2" cx="113.5" cy="65.8" rx="15.1" ry="19.3"/>
		<polygon class="st3" points="136,109.9 124.2,116.2 118.2,105.1 106.1,111.5 112,122.7 100.7,128.7 107.2,140.8 118.5,134.8 
			124.8,146.8 137,140.3 130.6,128.4 142.4,122.1 		"/>
	</g>
</g>
</svg>
