<?xml version="1.0" encoding="utf-8"?>
<!-- Generator: Adobe Illustrator 23.0.0, SVG Export Plug-In . SVG Version: 6.00 Build 0)  -->
<svg version="1.1" id="Layer_1" xmlns="http://www.w3.org/2000/svg" xmlns:xlink="http://www.w3.org/1999/xlink" x="0px" y="0px"
	 viewBox="0 0 325.5 175" style="enable-background:new 0 0 325.5 175;" xml:space="preserve">
<style type="text/css">
	.st0{fill:#334051;}
	.st1{fill:#F8A076;}
	.st2{fill:#FFFFFF;}
	.st3{fill:#F8A076;stroke:#334051;stroke-width:4;stroke-linejoin:round;stroke-miterlimit:10;}
	.st4{fill:#FFFFFF;stroke:#334051;stroke-width:4;stroke-linejoin:round;stroke-miterlimit:10;}
	.st5{fill:#F8A076;stroke:#334051;stroke-width:2.8961;stroke-linejoin:round;stroke-miterlimit:10;}
</style>
<g>
	<g>
		<path class="st0" d="M-298.1,74.8c-6.2,0-11.1-2.3-14.7-6.8h-0.8c0.5,4.5,0.8,7,0.8,7.7v21.6h-14.5V20.6h11.8l2.1,6.9h0.7
			c3.4-5.3,8.4-7.9,15-7.9c6.3,0,11.1,2.4,14.7,7.3c3.6,4.8,5.3,11.6,5.3,20.2c0,5.7-0.8,10.7-2.5,14.8c-1.6,4.2-4,7.3-7.1,9.5
			C-290.3,73.7-293.9,74.8-298.1,74.8z M-302.3,31.3c-3.6,0-6.2,1.1-7.8,3.3c-1.6,2.2-2.5,5.9-2.5,10.9v1.6c0,5.7,0.8,9.9,2.5,12.3
			c1.7,2.5,4.4,3.7,8,3.7c6.5,0,9.8-5.4,9.8-16.1c0-5.3-0.8-9.2-2.4-11.8S-298.9,31.3-302.3,31.3z"/>
		<path class="st0" d="M-242.5,74.8c-8.5,0-15.3-2.4-20.1-7.1c-4.8-4.7-7.2-11.5-7.2-20.1c0-9,2.2-15.8,6.7-20.7
			c4.5-4.8,10.6-7.3,18.5-7.3c7.5,0,13.3,2.2,17.6,6.4c4.2,4.2,6.3,10.2,6.3,17.8v7h-34.2c0.1,4.1,1.4,7.3,3.7,9.6s5.5,3.4,9.6,3.4
			c3.2,0,6.2-0.3,9.1-1s5.9-1.7,9-3.2v11.3c-2.5,1.3-5.3,2.2-8.2,2.9C-234.9,74.5-238.4,74.8-242.5,74.8z M-244.6,29.9
			c-3.1,0-5.5,1-7.2,3s-2.8,4.7-3,8.3h20.3c-0.1-3.6-1-6.3-2.8-8.3S-241.6,29.9-244.6,29.9z"/>
		<path class="st0" d="M-187.7,63.3c2.5,0,5.6-0.6,9.1-1.7v10.8c-3.6,1.6-8,2.4-13.3,2.4c-5.7,0-10-1.5-12.6-4.4
			c-2.6-3-4-7.3-4-13.2V31.5h-6.9v-6.2l8-4.8l4.1-11.3h9.3v11.4h14.9v10.9H-194v25.7c0,2.1,0.6,3.6,1.7,4.6
			C-191.2,62.7-189.6,63.3-187.7,63.3z"/>
		<path class="st0" d="M-131.7,58c0,5.5-1.8,9.6-5.6,12.5c-3.8,2.9-9.4,4.2-17,4.2c-3.9,0-7.1-0.2-9.9-0.8s-5.3-1.3-7.7-2.3V59.5
			c2.6,1.3,5.7,2.3,9.1,3.2s6.3,1.3,9,1.3c5.3,0,7.9-1.5,7.9-4.6c0-1.1-0.3-2.1-1-2.8c-0.7-0.7-2-1.5-3.6-2.4c-1.7-0.9-4-2-6.9-3.2
			c-4.1-1.7-7.1-3.3-9-4.8c-2-1.5-3.3-3.1-4.1-5.1c-0.8-2-1.3-4.2-1.3-7c0-4.7,1.8-8.4,5.5-11s8.8-3.9,15.6-3.9
			c6.4,0,12.6,1.4,18.7,4.2l-4.4,10.4c-2.6-1.1-5.2-2.1-7.5-2.8c-2.3-0.7-4.7-1.1-7.1-1.1c-4.2,0-6.4,1.1-6.4,3.4
			c0,1.3,0.7,2.4,2.1,3.3s4.4,2.4,9.1,4.2c4.1,1.7,7.2,3.2,9.1,4.7c2,1.5,3.3,3.1,4.2,5.1C-132.2,53.2-131.7,55.4-131.7,58z"/>
		<path class="st0" d="M-295.9,132.5h-12.5v42.4h-14.5v-42.4h-8v-7l8-3.9v-3.9c0-6.1,1.5-10.4,4.5-13.3c3-2.8,7.7-4.2,14.4-4.2
			c5.1,0,9.4,0.8,13.3,2.3l-3.7,10.7c-2.9-0.9-5.6-1.4-8-1.4c-2.1,0-3.6,0.6-4.5,1.8c-0.9,1.3-1.4,2.8-1.4,4.7v3.3h12.5
			L-295.9,132.5L-295.9,132.5z M-288.2,107.8c0-4.7,2.6-7.1,7.9-7.1s7.9,2.4,7.9,7.1c0,2.3-0.7,4-2,5.3s-3.3,1.8-6,1.8
			C-285.6,114.9-288.2,112.7-288.2,107.8z M-273,174.9h-14.5v-53.3h14.5V174.9z"/>
		<path class="st0" d="M-229.3,120.6c2,0,3.6,0.1,4.9,0.5l-1.1,13.7c-1.1-0.3-2.6-0.5-4.2-0.5c-4.6,0-8.3,1.1-10.8,3.6
			c-2.5,2.4-3.9,5.7-3.9,10V175h-14.5v-53.3h11l2.2,9h0.7c1.6-3,3.9-5.4,6.7-7.2C-235.6,121.5-232.5,120.6-229.3,120.6z"/>
		<path class="st0" d="M-178.7,159c0,5.5-1.8,9.6-5.6,12.5c-3.8,2.9-9.4,4.2-17,4.2c-3.9,0-7.1-0.2-9.9-0.8s-5.3-1.3-7.7-2.3v-12.1
			c2.6,1.3,5.7,2.3,9.1,3.2c3.3,0.9,6.3,1.3,9,1.3c5.3,0,7.9-1.5,7.9-4.6c0-1.1-0.3-2.1-1-2.8s-2-1.5-3.6-2.4c-1.7-0.9-4-2-6.9-3.2
			c-4.1-1.7-7.1-3.3-9-4.8c-2-1.5-3.3-3.1-4.1-5.1c-0.8-2-1.3-4.2-1.3-7c0-4.7,1.8-8.4,5.5-11s8.8-3.9,15.6-3.9
			c6.4,0,12.6,1.4,18.7,4.2l-4.4,10.4c-2.6-1.1-5.2-2.1-7.5-2.8s-4.7-1.1-7.1-1.1c-4.2,0-6.4,1.1-6.4,3.4c0,1.3,0.7,2.4,2.1,3.3
			c1.4,0.9,4.4,2.4,9.1,4.2c4.1,1.7,7.2,3.2,9.1,4.7c2,1.5,3.3,3.1,4.2,5.1C-179.1,154.2-178.7,156.4-178.7,159z"/>
		<path class="st0" d="M-146,164.3c2.5,0,5.6-0.6,9.1-1.7v10.8c-3.6,1.6-8,2.4-13.3,2.4c-5.7,0-10-1.5-12.6-4.4c-2.6-3-4-7.3-4-13.2
			v-25.7h-6.9v-6.2l8-4.8l4.1-11.3h9.3v11.4h15v10.9h-15v25.7c0,2.1,0.6,3.6,1.7,4.6C-149.4,163.7-147.8,164.3-146,164.3z"/>
	</g>
	<g>
		<path class="st1" d="M-365.3,176.8h-133.2c-9.5,0-17.2-7.7-17.2-17.2V26.4c0-9.5,7.7-17.2,17.2-17.2h133.2
			c9.5,0,17.2,7.7,17.2,17.2v133.3C-348.1,169.1-355.8,176.8-365.3,176.8z"/>
		<path class="st2" d="M-459.9,152.9c-6.7-12.9-4.1-24.2,0.9-54.3c3.9-23.5,25.2-33.7,44.5-21.9c22,13.3,37.6,22,42.9,32.7
			c5.2,10.6-2.3,16.1-13.8,21.6c-11.6,5.5-18.8-4.7-29.8,0.7c-9.6,4.7-7.7,18-20.6,24.4C-449.3,162.7-455.6,161.1-459.9,152.9z"/>
		
			<ellipse transform="matrix(0.897 -0.442 0.442 0.897 -95.0549 -202.0396)" class="st2" cx="-481.1" cy="103" rx="13.2" ry="17.2"/>
		
			<ellipse transform="matrix(0.897 -0.442 0.442 0.897 -70.0973 -168.5636)" class="st2" cx="-396.8" cy="66.1" rx="13.2" ry="17.2"/>
		
			<ellipse transform="matrix(0.897 -0.442 0.442 0.897 -76.3665 -202.244)" class="st2" cx="-472.2" cy="62.8" rx="15.1" ry="19.3"/>
		
			<ellipse transform="matrix(0.897 -0.442 0.442 0.897 -65.3749 -187.8864)" class="st2" cx="-435.9" cy="46.3" rx="15.1" ry="19.3"/>
		<polygon class="st3" points="-413.5,90.5 -425.3,96.8 -431.3,85.7 -443.4,92.1 -437.5,103.3 -448.8,109.3 -442.3,121.4 
			-431,115.4 -424.6,127.4 -412.5,120.9 -418.9,109 -407,102.7 		"/>
	</g>
</g>
<g>
	<g>
		<path class="st0" d="M-828.4,114.9c-2.7,0-4.8-1-6.3-2.9h-0.3c0.2,1.9,0.3,3,0.3,3.3v9.3h-6.2v-33h5.1l0.9,3h0.3
			c1.5-2.3,3.6-3.4,6.5-3.4c2.7,0,4.8,1,6.3,3.1s2.3,5,2.3,8.7c0,2.4-0.4,4.6-1.1,6.4s-1.7,3.2-3.1,4.1S-826.6,114.9-828.4,114.9z
			 M-830.2,96.1c-1.5,0-2.7,0.5-3.4,1.4c-0.7,1-1.1,2.5-1.1,4.7v0.7c0,2.5,0.4,4.2,1.1,5.3c0.7,1.1,1.9,1.6,3.5,1.6
			c2.8,0,4.2-2.3,4.2-6.9c0-2.3-0.3-3.9-1-5.1C-827.7,96.7-828.7,96.1-830.2,96.1z"/>
		<path class="st0" d="M-804.5,114.9c-3.7,0-6.6-1-8.6-3.1s-3.1-4.9-3.1-8.7s1-6.8,2.9-8.9c1.9-2.1,4.6-3.1,7.9-3.1
			c3.2,0,5.7,0.9,7.5,2.8c1.8,1.8,2.7,4.4,2.7,7.6v3h-14.7c0.1,1.8,0.6,3.2,1.6,4.2s2.4,1.5,4.1,1.5c1.4,0,2.7-0.1,3.9-0.4
			c1.2-0.3,2.5-0.7,3.8-1.4v4.8c-1.1,0.5-2.3,1-3.5,1.2C-801.2,114.7-802.7,114.9-804.5,114.9z M-805.4,95.6c-1.3,0-2.4,0.4-3.1,1.3
			c-0.8,0.8-1.2,2-1.3,3.6h8.8c0-1.5-0.4-2.7-1.2-3.6C-803,96-804,95.6-805.4,95.6z"/>
		<path class="st0" d="M-780.9,109.9c1.1,0,2.4-0.2,3.9-0.7v4.7c-1.6,0.7-3.5,1-5.7,1c-2.5,0-4.3-0.6-5.5-1.9
			c-1.1-1.3-1.7-3.2-1.7-5.7V96.2h-3v-2.6l3.4-2.1l1.8-4.8h4v4.9h6.4v4.7h-6.3v11.1c0,0.9,0.2,1.5,0.7,2
			C-782.4,109.7-781.7,109.9-780.9,109.9z"/>
		<path class="st0" d="M-756.8,107.7c0,2.4-0.8,4.1-2.4,5.4s-4.1,1.8-7.3,1.8c-1.7,0-3.1-0.1-4.3-0.3s-2.3-0.6-3.3-1v-5.2
			c1.2,0.5,2.5,1,3.9,1.4c1.5,0.4,2.7,0.6,3.8,0.6c2.3,0,3.4-0.7,3.4-2c0-0.5-0.2-0.9-0.5-1.2s-0.8-0.7-1.6-1
			c-0.7-0.4-1.7-0.8-2.9-1.4c-1.8-0.7-3-1.4-3.9-2.1s-1.4-1.3-1.8-2.2s-0.6-1.8-0.6-3c0-2,0.8-3.6,2.4-4.7c1.6-1.1,3.8-1.7,6.7-1.7
			c2.8,0,5.4,0.6,8,1.8l-1.9,4.5c-1.1-0.5-2.2-0.9-3.2-1.2s-2-0.5-3-0.5c-1.8,0-2.8,0.5-2.8,1.5c0,0.6,0.3,1,0.9,1.5
			c0.6,0.4,1.9,1,3.9,1.8c1.8,0.7,3.1,1.4,3.9,2c0.8,0.6,1.4,1.4,1.8,2.2S-756.8,106.5-756.8,107.7z"/>
		<path class="st0" d="M-729.3,96.2h-5.4v18.3h-6.2V96.3h-3.4v-3l3.4-1.7v-1.7c0-2.6,0.6-4.5,1.9-5.7s3.3-1.8,6.2-1.8
			c2.2,0,4.1,0.3,5.7,1l-1.6,4.6c-1.3-0.4-2.4-0.6-3.5-0.6c-0.9,0-1.5,0.3-1.9,0.8s-0.6,1.2-0.6,2v1.4h5.4L-729.3,96.2L-729.3,96.2z
			 M-725.9,85.6c0-2,1.1-3.1,3.4-3.1c2.3,0,3.4,1,3.4,3.1c0,1-0.3,1.7-0.8,2.3c-0.6,0.5-1.4,0.8-2.5,0.8
			C-724.8,88.7-725.9,87.7-725.9,85.6z M-719.4,114.5h-6.2v-23h6.2V114.5z"/>
		<path class="st0" d="M-700.6,91.1c0.8,0,1.5,0.1,2.1,0.2l-0.5,5.9c-0.5-0.1-1.1-0.2-1.8-0.2c-2,0-3.5,0.5-4.7,1.5
			c-1.1,1-1.7,2.5-1.7,4.3v11.7h-6.2v-23h4.7l0.9,3.9h0.3c0.7-1.3,1.7-2.3,2.9-3.1C-703.3,91.5-702,91.1-700.6,91.1z"/>
		<path class="st0" d="M-678.8,107.7c0,2.4-0.8,4.1-2.4,5.4s-4.1,1.8-7.3,1.8c-1.7,0-3.1-0.1-4.3-0.3s-2.3-0.6-3.3-1v-5.2
			c1.2,0.5,2.5,1,3.9,1.4c1.5,0.4,2.7,0.6,3.8,0.6c2.3,0,3.4-0.7,3.4-2c0-0.5-0.2-0.9-0.5-1.2s-0.8-0.7-1.6-1
			c-0.7-0.4-1.7-0.8-2.9-1.4c-1.8-0.7-3-1.4-3.9-2.1s-1.4-1.3-1.8-2.2s-0.6-1.8-0.6-3c0-2,0.8-3.6,2.4-4.7c1.6-1.1,3.8-1.7,6.7-1.7
			c2.8,0,5.4,0.6,8,1.8l-1.9,4.5c-1.1-0.5-2.2-0.9-3.2-1.2s-2-0.5-3-0.5c-1.8,0-2.8,0.5-2.8,1.5c0,0.6,0.3,1,0.9,1.5
			c0.6,0.4,1.9,1,3.9,1.8c1.8,0.7,3.1,1.4,3.9,2c0.8,0.6,1.4,1.4,1.8,2.2S-678.8,106.5-678.8,107.7z"/>
		<path class="st0" d="M-664.7,109.9c1.1,0,2.4-0.2,3.9-0.7v4.7c-1.6,0.7-3.5,1-5.7,1c-2.5,0-4.3-0.6-5.5-1.9
			c-1.1-1.3-1.7-3.2-1.7-5.7V96.2h-3v-2.6l3.4-2.1l1.8-4.8h4v4.9h6.4v4.7h-6.4v11.1c0,0.9,0.2,1.5,0.7,2
			C-666.2,109.7-665.5,109.9-664.7,109.9z"/>
	</g>
	<g>
		<path class="st1" d="M-786.3,63c-6.7-12.9-4.1-24.2,0.9-54.3c3.9-23.5,25.2-33.7,44.5-21.9c22,13.3,37.6,22,42.9,32.7
			c5.2,10.6-2.3,16.1-13.8,21.6c-11.6,5.5-18.8-4.7-29.8,0.7c-9.6,4.7-7.7,18-20.6,24.4C-775.7,72.8-782,71.3-786.3,63z"/>
		
			<ellipse transform="matrix(0.897 -0.442 0.442 0.897 -88.9926 -355.5549)" class="st1" cx="-807.5" cy="13.2" rx="13.2" ry="17.2"/>
		
			<ellipse transform="matrix(0.897 -0.442 0.442 0.897 -63.9999 -322.1076)" class="st1" cx="-723.2" cy="-23.7" rx="13.2" ry="17.2"/>
		
			<ellipse transform="matrix(0.897 -0.442 0.442 0.897 -70.2691 -355.7881)" class="st1" cx="-798.6" cy="-27.1" rx="15.1" ry="19.3"/>
		
			<ellipse transform="matrix(0.897 -0.442 0.442 0.897 -59.2775 -341.4305)" class="st1" cx="-762.3" cy="-43.5" rx="15.1" ry="19.3"/>
		<polygon class="st4" points="-739.9,0.7 -751.7,7 -757.6,-4.2 -769.8,2.3 -763.9,13.4 -775.2,19.4 -768.7,31.6 -757.4,25.6 
			-751,37.5 -738.9,31.1 -745.2,19.1 -733.4,12.8 		"/>
	</g>
</g>
<g>
	<g>
		<path class="st0" d="M-509.4,419c-2.7,0-4.8-1-6.3-2.9h-0.3c0.2,1.9,0.3,3,0.3,3.3v9.3h-6.2v-33h5.1l0.9,3h0.3
			c1.5-2.3,3.6-3.4,6.5-3.4c2.7,0,4.8,1,6.3,3.1s2.3,5,2.3,8.7c0,2.4-0.4,4.6-1.1,6.4s-1.7,3.2-3.1,4.1
			C-506.1,418.5-507.6,419-509.4,419z M-511.2,400.2c-1.5,0-2.7,0.5-3.4,1.4c-0.7,1-1.1,2.5-1.1,4.7v0.7c0,2.5,0.4,4.2,1.1,5.3
			c0.7,1.1,1.9,1.6,3.5,1.6c2.8,0,4.2-2.3,4.2-6.9c0-2.3-0.3-3.9-1-5.1C-508.7,400.8-509.7,400.2-511.2,400.2z"/>
		<path class="st0" d="M-485.5,419c-3.7,0-6.6-1-8.6-3.1s-3.1-4.9-3.1-8.7c0-3.8,1-6.8,2.9-8.9c1.9-2.1,4.6-3.1,7.9-3.1
			c3.2,0,5.7,0.9,7.5,2.8c1.8,1.8,2.7,4.4,2.7,7.6v3h-14.7c0.1,1.8,0.6,3.2,1.6,4.2s2.4,1.5,4.1,1.5c1.4,0,2.7-0.1,3.9-0.4
			c1.2-0.3,2.5-0.7,3.8-1.4v4.8c-1.1,0.5-2.3,1-3.5,1.2C-482.2,418.8-483.7,419-485.5,419z M-486.4,399.7c-1.3,0-2.4,0.4-3.1,1.3
			c-0.8,0.8-1.2,2-1.3,3.6h8.8c0-1.5-0.4-2.7-1.2-3.6C-484,400.1-485,399.7-486.4,399.7z"/>
		<path class="st0" d="M-461.9,414c1.1,0,2.4-0.2,3.9-0.7v4.7c-1.6,0.7-3.5,1-5.7,1c-2.5,0-4.3-0.6-5.5-1.9
			c-1.1-1.3-1.7-3.2-1.7-5.7v-11.1h-3v-2.6l3.4-2.1l1.8-4.8h4v4.9h6.4v4.7h-6.3v11.1c0,0.9,0.2,1.5,0.7,2
			C-463.4,413.8-462.7,414-461.9,414z"/>
		<path class="st0" d="M-437.8,411.8c0,2.4-0.8,4.1-2.4,5.4s-4.1,1.8-7.3,1.8c-1.7,0-3.1-0.1-4.3-0.3c-1.2-0.2-2.3-0.6-3.3-1v-5.2
			c1.2,0.5,2.5,1,3.9,1.4c1.5,0.4,2.7,0.6,3.8,0.6c2.3,0,3.4-0.7,3.4-2c0-0.5-0.2-0.9-0.5-1.2c-0.3-0.3-0.8-0.7-1.6-1
			c-0.7-0.4-1.7-0.8-2.9-1.4c-1.8-0.7-3-1.4-3.9-2.1s-1.4-1.3-1.8-2.2s-0.6-1.8-0.6-3c0-2,0.8-3.6,2.4-4.7c1.6-1.1,3.8-1.7,6.7-1.7
			c2.8,0,5.4,0.6,8,1.8l-1.9,4.5c-1.1-0.5-2.2-0.9-3.2-1.2c-1-0.3-2-0.5-3-0.5c-1.8,0-2.8,0.5-2.8,1.5c0,0.6,0.3,1,0.9,1.5
			c0.6,0.4,1.9,1,3.9,1.8c1.8,0.7,3.1,1.4,3.9,2c0.8,0.6,1.4,1.4,1.8,2.2C-438.2,409.6-437.8,410.6-437.8,411.8z"/>
		<path class="st0" d="M-410.3,400.3h-5.4v18.3h-6.2v-18.2h-3.4v-3l3.4-1.7V394c0-2.6,0.6-4.5,1.9-5.7c1.3-1.2,3.3-1.8,6.2-1.8
			c2.2,0,4.1,0.3,5.7,1l-1.6,4.6c-1.3-0.4-2.4-0.6-3.5-0.6c-0.9,0-1.5,0.3-1.9,0.8s-0.6,1.2-0.6,2v1.4h5.4L-410.3,400.3
			L-410.3,400.3z M-406.9,389.7c0-2,1.1-3.1,3.4-3.1c2.3,0,3.4,1,3.4,3.1c0,1-0.3,1.7-0.8,2.3c-0.6,0.5-1.4,0.8-2.5,0.8
			C-405.8,392.8-406.9,391.8-406.9,389.7z M-400.4,418.6h-6.2v-23h6.2V418.6z"/>
		<path class="st0" d="M-381.6,395.2c0.8,0,1.5,0.1,2.1,0.2l-0.5,5.9c-0.5-0.1-1.1-0.2-1.8-0.2c-2,0-3.5,0.5-4.7,1.5
			c-1.1,1-1.7,2.5-1.7,4.3v11.7h-6.2v-23h4.7l0.9,3.9h0.3c0.7-1.3,1.7-2.3,2.9-3.1C-384.3,395.6-383,395.2-381.6,395.2z"/>
		<path class="st0" d="M-359.8,411.8c0,2.4-0.8,4.1-2.4,5.4s-4.1,1.8-7.3,1.8c-1.7,0-3.1-0.1-4.3-0.3c-1.2-0.2-2.3-0.6-3.3-1v-5.2
			c1.2,0.5,2.5,1,3.9,1.4c1.5,0.4,2.7,0.6,3.8,0.6c2.3,0,3.4-0.7,3.4-2c0-0.5-0.2-0.9-0.5-1.2c-0.3-0.3-0.8-0.7-1.6-1
			c-0.7-0.4-1.7-0.8-2.9-1.4c-1.8-0.7-3-1.4-3.9-2.1s-1.4-1.3-1.8-2.2s-0.6-1.8-0.6-3c0-2,0.8-3.6,2.4-4.7c1.6-1.1,3.8-1.7,6.7-1.7
			c2.8,0,5.4,0.6,8,1.8l-1.9,4.5c-1.1-0.5-2.2-0.9-3.2-1.2c-1-0.3-2-0.5-3-0.5c-1.8,0-2.8,0.5-2.8,1.5c0,0.6,0.3,1,0.9,1.5
			c0.6,0.4,1.9,1,3.9,1.8c1.8,0.7,3.1,1.4,3.9,2c0.8,0.6,1.4,1.4,1.8,2.2C-360.2,409.6-359.8,410.6-359.8,411.8z"/>
		<path class="st0" d="M-345.7,414c1.1,0,2.4-0.2,3.9-0.7v4.7c-1.6,0.7-3.5,1-5.7,1c-2.5,0-4.3-0.6-5.5-1.9
			c-1.1-1.3-1.7-3.2-1.7-5.7v-11.1h-3v-2.6l3.4-2.1l1.8-4.8h4v4.9h6.4v4.7h-6.4v11.1c0,0.9,0.2,1.5,0.7,2
			C-347.2,413.8-346.5,414-345.7,414z"/>
	</g>
	<g>
		<path class="st1" d="M-467.3,367.1c-6.7-12.9-4.1-24.2,0.9-54.3c3.9-23.5,25.2-33.7,44.5-21.9c22,13.3,37.6,22,42.9,32.7
			c5.2,10.6-2.3,16.1-13.8,21.6c-11.6,5.5-18.8-4.7-29.8,0.7c-9.6,4.7-7.7,18-20.6,24.4C-456.7,376.9-463,375.4-467.3,367.1z"/>
		
			<ellipse transform="matrix(0.897 -0.442 0.442 0.897 -190.5663 -183.2529)" class="st1" cx="-488.5" cy="317.3" rx="13.2" ry="17.2"/>
		
			<ellipse transform="matrix(0.897 -0.442 0.442 0.897 -165.5735 -149.8056)" class="st1" cx="-404.3" cy="280.4" rx="13.2" ry="17.2"/>
		
			<ellipse transform="matrix(0.897 -0.442 0.442 0.897 -171.8427 -183.4861)" class="st1" cx="-479.7" cy="277" rx="15.1" ry="19.3"/>
		
			<ellipse transform="matrix(0.897 -0.442 0.442 0.897 -160.8512 -169.1285)" class="st1" cx="-443.4" cy="260.6" rx="15.1" ry="19.3"/>
		<polygon class="st4" points="-420.9,304.8 -432.7,311.1 -438.6,299.9 -450.8,306.4 -444.9,317.5 -456.2,323.5 -449.7,335.7 
			-438.4,329.7 -432,341.6 -419.9,335.2 -426.2,323.2 -414.4,316.9 		"/>
	</g>
</g>
<g>
	<g>
		<path class="st2" d="M-828.4,304.4c-2.7,0-4.8-1-6.3-2.9h-0.3c0.2,1.9,0.3,3,0.3,3.3v9.3h-6.2v-33h5.1l0.9,3h0.3
			c1.5-2.3,3.6-3.4,6.5-3.4c2.7,0,4.8,1,6.3,3.1s2.3,5,2.3,8.7c0,2.4-0.4,4.6-1.1,6.4s-1.7,3.2-3.1,4.1
			C-825.1,303.9-826.6,304.4-828.4,304.4z M-830.2,285.6c-1.5,0-2.7,0.5-3.4,1.4c-0.7,1-1.1,2.5-1.1,4.7v0.7c0,2.5,0.4,4.2,1.1,5.3
			c0.7,1.1,1.9,1.6,3.5,1.6c2.8,0,4.2-2.3,4.2-6.9c0-2.3-0.3-3.9-1-5.1C-827.7,286.2-828.7,285.6-830.2,285.6z"/>
		<path class="st2" d="M-804.5,304.4c-3.7,0-6.6-1-8.6-3.1s-3.1-4.9-3.1-8.7c0-3.8,1-6.8,2.9-8.9c1.9-2.1,4.6-3.1,7.9-3.1
			c3.2,0,5.7,0.9,7.5,2.8c1.8,1.8,2.7,4.4,2.7,7.6v3h-14.7c0.1,1.8,0.6,3.2,1.6,4.2s2.4,1.5,4.1,1.5c1.4,0,2.7-0.1,3.9-0.4
			c1.2-0.3,2.5-0.7,3.8-1.4v4.8c-1.1,0.5-2.3,1-3.5,1.2C-801.2,304.2-802.7,304.4-804.5,304.4z M-805.4,285.1
			c-1.3,0-2.4,0.4-3.1,1.3c-0.8,0.8-1.2,2-1.3,3.6h8.8c0-1.5-0.4-2.7-1.2-3.6C-803,285.5-804,285.1-805.4,285.1z"/>
		<path class="st2" d="M-780.9,299.4c1.1,0,2.4-0.2,3.9-0.7v4.7c-1.6,0.7-3.5,1-5.7,1c-2.5,0-4.3-0.6-5.5-1.9
			c-1.1-1.3-1.7-3.2-1.7-5.7v-11.1h-3v-2.6l3.4-2.1l1.8-4.8h4v4.9h6.4v4.7h-6.3v11.1c0,0.9,0.2,1.5,0.7,2
			C-782.4,299.2-781.7,299.4-780.9,299.4z"/>
		<path class="st2" d="M-756.8,297.2c0,2.4-0.8,4.1-2.4,5.4s-4.1,1.8-7.3,1.8c-1.7,0-3.1-0.1-4.3-0.3c-1.2-0.2-2.3-0.6-3.3-1v-5.2
			c1.2,0.5,2.5,1,3.9,1.4c1.5,0.4,2.7,0.6,3.8,0.6c2.3,0,3.4-0.7,3.4-2c0-0.5-0.2-0.9-0.5-1.2c-0.3-0.3-0.8-0.7-1.6-1
			c-0.7-0.4-1.7-0.8-2.9-1.4c-1.8-0.7-3-1.4-3.9-2.1s-1.4-1.3-1.8-2.2s-0.6-1.8-0.6-3c0-2,0.8-3.6,2.4-4.7c1.6-1.1,3.8-1.7,6.7-1.7
			c2.8,0,5.4,0.6,8,1.8l-1.9,4.5c-1.1-0.5-2.2-0.9-3.2-1.2c-1-0.3-2-0.5-3-0.5c-1.8,0-2.8,0.5-2.8,1.5c0,0.6,0.3,1,0.9,1.5
			c0.6,0.4,1.9,1,3.9,1.8c1.8,0.7,3.1,1.4,3.9,2c0.8,0.6,1.4,1.4,1.8,2.2C-757.2,295-756.8,296-756.8,297.2z"/>
		<path class="st2" d="M-729.3,285.7h-5.4V304h-6.2v-18.2h-3.4v-3l3.4-1.7v-1.7c0-2.6,0.6-4.5,1.9-5.7c1.3-1.2,3.3-1.8,6.2-1.8
			c2.2,0,4.1,0.3,5.7,1l-1.6,4.6c-1.3-0.4-2.4-0.6-3.5-0.6c-0.9,0-1.5,0.3-1.9,0.8s-0.6,1.2-0.6,2v1.4h5.4L-729.3,285.7
			L-729.3,285.7z M-725.9,275.1c0-2,1.1-3.1,3.4-3.1c2.3,0,3.4,1,3.4,3.1c0,1-0.3,1.7-0.8,2.3c-0.6,0.5-1.4,0.8-2.5,0.8
			C-724.8,278.2-725.9,277.2-725.9,275.1z M-719.4,304h-6.2v-23h6.2V304z"/>
		<path class="st2" d="M-700.6,280.6c0.8,0,1.5,0.1,2.1,0.2l-0.5,5.9c-0.5-0.1-1.1-0.2-1.8-0.2c-2,0-3.5,0.5-4.7,1.5
			c-1.1,1-1.7,2.5-1.7,4.3V304h-6.2v-23h4.7l0.9,3.9h0.3c0.7-1.3,1.7-2.3,2.9-3.1C-703.3,281-702,280.6-700.6,280.6z"/>
		<path class="st2" d="M-678.8,297.2c0,2.4-0.8,4.1-2.4,5.4s-4.1,1.8-7.3,1.8c-1.7,0-3.1-0.1-4.3-0.3c-1.2-0.2-2.3-0.6-3.3-1v-5.2
			c1.2,0.5,2.5,1,3.9,1.4c1.5,0.4,2.7,0.6,3.8,0.6c2.3,0,3.4-0.7,3.4-2c0-0.5-0.2-0.9-0.5-1.2c-0.3-0.3-0.8-0.7-1.6-1
			c-0.7-0.4-1.7-0.8-2.9-1.4c-1.8-0.7-3-1.4-3.9-2.1s-1.4-1.3-1.8-2.2s-0.6-1.8-0.6-3c0-2,0.8-3.6,2.4-4.7c1.6-1.1,3.8-1.7,6.7-1.7
			c2.8,0,5.4,0.6,8,1.8l-1.9,4.5c-1.1-0.5-2.2-0.9-3.2-1.2c-1-0.3-2-0.5-3-0.5c-1.8,0-2.8,0.5-2.8,1.5c0,0.6,0.3,1,0.9,1.5
			c0.6,0.4,1.9,1,3.9,1.8c1.8,0.7,3.1,1.4,3.9,2c0.8,0.6,1.4,1.4,1.8,2.2C-679.2,295-678.8,296-678.8,297.2z"/>
		<path class="st2" d="M-664.7,299.4c1.1,0,2.4-0.2,3.9-0.7v4.7c-1.6,0.7-3.5,1-5.7,1c-2.5,0-4.3-0.6-5.5-1.9
			c-1.1-1.3-1.7-3.2-1.7-5.7v-11.1h-3v-2.6l3.4-2.1l1.8-4.8h4v4.9h6.4v4.7h-6.4v11.1c0,0.9,0.2,1.5,0.7,2
			C-666.2,299.2-665.5,299.4-664.7,299.4z"/>
	</g>
	<g>
		<path class="st1" d="M-786.3,252.5c-6.7-12.9-4.1-24.2,0.9-54.3c3.9-23.5,25.2-33.7,44.5-21.9c22,13.3,37.6,22,42.9,32.7
			c5.2,10.6-2.3,16.1-13.8,21.6c-11.6,5.5-18.8-4.7-29.8,0.7c-9.6,4.7-7.7,18-20.6,24.4C-775.7,262.3-782,260.8-786.3,252.5z"/>
		
			<ellipse transform="matrix(0.897 -0.442 0.442 0.897 -172.7271 -336.0447)" class="st1" cx="-807.5" cy="202.6" rx="13.2" ry="17.2"/>
		
			<ellipse transform="matrix(0.897 -0.442 0.442 0.897 -147.7344 -302.5974)" class="st1" cx="-723.2" cy="165.7" rx="13.2" ry="17.2"/>
		
			<ellipse transform="matrix(0.897 -0.442 0.442 0.897 -154.0036 -336.2778)" class="st1" cx="-798.6" cy="162.3" rx="15.1" ry="19.3"/>
		
			<ellipse transform="matrix(0.897 -0.442 0.442 0.897 -143.0121 -321.9202)" class="st1" cx="-762.3" cy="145.9" rx="15.1" ry="19.3"/>
		<polygon class="st4" points="-739.9,190.2 -751.7,196.5 -757.6,185.3 -769.8,191.8 -763.9,202.9 -775.2,208.9 -768.7,221.1 
			-757.4,215.1 -751,227 -738.9,220.6 -745.2,208.6 -733.4,202.3 		"/>
	</g>
</g>
<g>
	<g>
		<path class="st2" d="M-256.2,419c-2.7,0-4.8-1-6.3-2.9h-0.3c0.2,1.9,0.3,3,0.3,3.3v9.3h-6.2v-33h5.1l0.9,3h0.3
			c1.5-2.3,3.6-3.4,6.5-3.4c2.7,0,4.8,1,6.3,3.1s2.3,5,2.3,8.7c0,2.4-0.4,4.6-1.1,6.4s-1.7,3.2-3.1,4.1
			C-252.9,418.5-254.4,419-256.2,419z M-258,400.2c-1.5,0-2.7,0.5-3.4,1.4c-0.7,1-1.1,2.5-1.1,4.7v0.7c0,2.5,0.4,4.2,1.1,5.3
			c0.7,1.1,1.9,1.6,3.5,1.6c2.8,0,4.2-2.3,4.2-6.9c0-2.3-0.3-3.9-1-5.1C-255.5,400.8-256.5,400.2-258,400.2z"/>
		<path class="st2" d="M-232.3,419c-3.7,0-6.6-1-8.6-3.1s-3.1-4.9-3.1-8.7c0-3.8,1-6.8,2.9-8.9c1.9-2.1,4.6-3.1,7.9-3.1
			c3.2,0,5.7,0.9,7.5,2.8c1.8,1.8,2.7,4.4,2.7,7.6v3h-14.7c0.1,1.8,0.6,3.2,1.6,4.2s2.4,1.5,4.1,1.5c1.4,0,2.7-0.1,3.9-0.4
			c1.2-0.3,2.5-0.7,3.8-1.4v4.8c-1.1,0.5-2.3,1-3.5,1.2C-229,418.8-230.5,419-232.3,419z M-233.2,399.7c-1.3,0-2.4,0.4-3.1,1.3
			c-0.8,0.8-1.2,2-1.3,3.6h8.8c0-1.5-0.4-2.7-1.2-3.6C-230.8,400.1-231.8,399.7-233.2,399.7z"/>
		<path class="st2" d="M-208.7,414c1.1,0,2.4-0.2,3.9-0.7v4.7c-1.6,0.7-3.5,1-5.7,1c-2.5,0-4.3-0.6-5.5-1.9
			c-1.1-1.3-1.7-3.2-1.7-5.7v-11.1h-3v-2.6l3.4-2.1l1.8-4.8h4v4.9h6.4v4.7h-6.3v11.1c0,0.9,0.2,1.5,0.7,2
			C-210.2,413.8-209.5,414-208.7,414z"/>
		<path class="st2" d="M-184.6,411.8c0,2.4-0.8,4.1-2.4,5.4s-4.1,1.8-7.3,1.8c-1.7,0-3.1-0.1-4.3-0.3c-1.2-0.2-2.3-0.6-3.3-1v-5.2
			c1.2,0.5,2.5,1,3.9,1.4c1.5,0.4,2.7,0.6,3.8,0.6c2.3,0,3.4-0.7,3.4-2c0-0.5-0.2-0.9-0.5-1.2c-0.3-0.3-0.8-0.7-1.6-1
			c-0.7-0.4-1.7-0.8-2.9-1.4c-1.8-0.7-3-1.4-3.9-2.1s-1.4-1.3-1.8-2.2s-0.6-1.8-0.6-3c0-2,0.8-3.6,2.4-4.7c1.6-1.1,3.8-1.7,6.7-1.7
			c2.8,0,5.4,0.6,8,1.8l-1.9,4.5c-1.1-0.5-2.2-0.9-3.2-1.2c-1-0.3-2-0.5-3-0.5c-1.8,0-2.8,0.5-2.8,1.5c0,0.6,0.3,1,0.9,1.5
			c0.6,0.4,1.9,1,3.9,1.8c1.8,0.7,3.1,1.4,3.9,2c0.8,0.6,1.4,1.4,1.8,2.2C-185,409.6-184.6,410.6-184.6,411.8z"/>
		<path class="st2" d="M-157.1,400.3h-5.4v18.3h-6.2v-18.2h-3.4v-3l3.4-1.7V394c0-2.6,0.6-4.5,1.9-5.7c1.3-1.2,3.3-1.8,6.2-1.8
			c2.2,0,4.1,0.3,5.7,1l-1.6,4.6c-1.3-0.4-2.4-0.6-3.5-0.6c-0.9,0-1.5,0.3-1.9,0.8s-0.6,1.2-0.6,2v1.4h5.4L-157.1,400.3
			L-157.1,400.3z M-153.7,389.7c0-2,1.1-3.1,3.4-3.1c2.3,0,3.4,1,3.4,3.1c0,1-0.3,1.7-0.8,2.3c-0.6,0.5-1.4,0.8-2.5,0.8
			C-152.6,392.8-153.7,391.8-153.7,389.7z M-147.2,418.6h-6.2v-23h6.2V418.6z"/>
		<path class="st2" d="M-128.4,395.2c0.8,0,1.5,0.1,2.1,0.2l-0.5,5.9c-0.5-0.1-1.1-0.2-1.8-0.2c-2,0-3.5,0.5-4.7,1.5
			c-1.1,1-1.7,2.5-1.7,4.3v11.7h-6.2v-23h4.7l0.9,3.9h0.3c0.7-1.3,1.7-2.3,2.9-3.1C-131.1,395.6-129.8,395.2-128.4,395.2z"/>
		<path class="st2" d="M-106.6,411.8c0,2.4-0.8,4.1-2.4,5.4s-4.1,1.8-7.3,1.8c-1.7,0-3.1-0.1-4.3-0.3c-1.2-0.2-2.3-0.6-3.3-1v-5.2
			c1.2,0.5,2.5,1,3.9,1.4c1.5,0.4,2.7,0.6,3.8,0.6c2.3,0,3.4-0.7,3.4-2c0-0.5-0.2-0.9-0.5-1.2c-0.3-0.3-0.8-0.7-1.6-1
			c-0.7-0.4-1.7-0.8-2.9-1.4c-1.8-0.7-3-1.4-3.9-2.1s-1.4-1.3-1.8-2.2s-0.6-1.8-0.6-3c0-2,0.8-3.6,2.4-4.7c1.6-1.1,3.8-1.7,6.7-1.7
			c2.8,0,5.4,0.6,8,1.8l-1.9,4.5c-1.1-0.5-2.2-0.9-3.2-1.2c-1-0.3-2-0.5-3-0.5c-1.8,0-2.8,0.5-2.8,1.5c0,0.6,0.3,1,0.9,1.5
			c0.6,0.4,1.9,1,3.9,1.8c1.8,0.7,3.1,1.4,3.9,2c0.8,0.6,1.4,1.4,1.8,2.2C-107,409.6-106.6,410.6-106.6,411.8z"/>
		<path class="st2" d="M-92.5,414c1.1,0,2.4-0.2,3.9-0.7v4.7c-1.6,0.7-3.5,1-5.7,1c-2.5,0-4.3-0.6-5.5-1.9c-1.1-1.3-1.7-3.2-1.7-5.7
			v-11.1h-3v-2.6l3.4-2.1l1.8-4.8h4v4.9h6.4v4.7h-6.4v11.1c0,0.9,0.2,1.5,0.7,2C-94,413.8-93.3,414-92.5,414z"/>
	</g>
	<g>
		<path class="st1" d="M-214.1,367.1c-6.7-12.9-4.1-24.2,0.9-54.3c3.9-23.5,25.2-33.7,44.5-21.9c22,13.3,37.6,22,42.9,32.7
			c5.2,10.6-2.3,16.1-13.8,21.6c-11.6,5.5-18.8-4.7-29.8,0.7c-9.6,4.7-7.7,18-20.6,24.4C-203.5,376.9-209.8,375.4-214.1,367.1z"/>
		
			<ellipse transform="matrix(0.897 -0.442 0.442 0.897 -164.4897 -71.337)" class="st1" cx="-235.3" cy="317.3" rx="13.2" ry="17.2"/>
		
			<ellipse transform="matrix(0.897 -0.442 0.442 0.897 -139.497 -37.8897)" class="st1" cx="-151.1" cy="280.4" rx="13.2" ry="17.2"/>
		
			<ellipse transform="matrix(0.897 -0.442 0.442 0.897 -145.7662 -71.5702)" class="st1" cx="-226.5" cy="277" rx="15.1" ry="19.3"/>
		
			<ellipse transform="matrix(0.897 -0.442 0.442 0.897 -134.7747 -57.2126)" class="st1" cx="-190.2" cy="260.6" rx="15.1" ry="19.3"/>
		<polygon class="st4" points="-167.7,304.8 -179.5,311.1 -185.4,299.9 -197.6,306.4 -191.7,317.5 -203,323.5 -196.5,335.7 
			-185.2,329.7 -178.8,341.6 -166.7,335.2 -173,323.2 -161.2,316.9 		"/>
	</g>
</g>
<g>
	<g>
		<path class="st0" d="M-1118.5,74.8c-6.2,0-11.1-2.3-14.7-6.8h-0.8c0.5,4.5,0.8,7,0.8,7.7v21.6h-14.5V20.6h11.8l2.1,6.9h0.7
			c3.4-5.3,8.4-7.9,15-7.9c6.3,0,11.1,2.4,14.7,7.3c3.6,4.8,5.3,11.6,5.3,20.2c0,5.7-0.8,10.7-2.5,14.8c-1.6,4.2-4,7.3-7.1,9.5
			C-1110.7,73.7-1114.3,74.8-1118.5,74.8z M-1122.7,31.3c-3.6,0-6.2,1.1-7.8,3.3c-1.6,2.2-2.5,5.9-2.5,10.9v1.6
			c0,5.7,0.8,9.9,2.5,12.3c1.7,2.5,4.4,3.7,8,3.7c6.5,0,9.8-5.4,9.8-16.1c0-5.3-0.8-9.2-2.4-11.8
			C-1116.7,32.6-1119.3,31.3-1122.7,31.3z"/>
		<path class="st0" d="M-1062.9,74.8c-8.5,0-15.3-2.4-20.1-7.1c-4.8-4.7-7.2-11.5-7.2-20.1c0-9,2.2-15.8,6.7-20.7
			c4.5-4.8,10.6-7.3,18.5-7.3c7.5,0,13.3,2.2,17.6,6.4c4.2,4.2,6.3,10.2,6.3,17.8v7h-34.2c0.1,4.1,1.4,7.3,3.7,9.6
			c2.3,2.3,5.5,3.4,9.6,3.4c3.2,0,6.2-0.3,9.1-1s5.9-1.7,9-3.2v11.3c-2.5,1.3-5.3,2.2-8.2,2.9C-1055.3,74.5-1058.8,74.8-1062.9,74.8
			z M-1065,29.9c-3.1,0-5.5,1-7.2,3c-1.7,2-2.8,4.7-3,8.3h20.3c-0.1-3.6-1-6.3-2.8-8.3C-1059.5,30.9-1062,29.9-1065,29.9z"/>
		<path class="st0" d="M-1008.1,63.3c2.5,0,5.6-0.6,9.1-1.7v10.8c-3.6,1.6-8,2.4-13.3,2.4c-5.7,0-10-1.5-12.6-4.4
			c-2.6-3-4-7.3-4-13.2V31.5h-6.9v-6.2l8-4.8l4.1-11.3h9.3v11.4h14.9v10.9h-14.9v25.7c0,2.1,0.6,3.6,1.7,4.6
			C-1011.6,62.7-1010,63.3-1008.1,63.3z"/>
		<path class="st0" d="M-952.1,58c0,5.5-1.8,9.6-5.6,12.5s-9.4,4.2-17,4.2c-3.9,0-7.1-0.2-9.9-0.8s-5.3-1.3-7.7-2.3V59.5
			c2.6,1.3,5.7,2.3,9.1,3.2c3.4,0.9,6.3,1.3,9,1.3c5.3,0,7.9-1.5,7.9-4.6c0-1.1-0.3-2.1-1-2.8c-0.7-0.7-2-1.5-3.6-2.4
			c-1.7-0.9-4-2-6.9-3.2c-4.1-1.7-7.1-3.3-9-4.8c-2-1.5-3.3-3.1-4.1-5.1s-1.3-4.2-1.3-7c0-4.7,1.8-8.4,5.5-11s8.8-3.9,15.6-3.9
			c6.4,0,12.6,1.4,18.7,4.2l-4.4,10.4c-2.6-1.1-5.2-2.1-7.5-2.8c-2.3-0.7-4.7-1.1-7.1-1.1c-4.2,0-6.4,1.1-6.4,3.4
			c0,1.3,0.7,2.4,2.1,3.3c1.4,0.9,4.4,2.4,9.1,4.2c4.1,1.7,7.2,3.2,9.1,4.7c2,1.5,3.3,3.1,4.2,5.1C-952.6,53.2-952.1,55.4-952.1,58z
			"/>
		<path class="st0" d="M-1116.3,132.5h-12.5v42.4h-14.5v-42.4h-8v-7l8-3.9v-3.9c0-6.1,1.5-10.4,4.5-13.3c3-2.8,7.7-4.2,14.4-4.2
			c5.1,0,9.4,0.8,13.3,2.3l-3.7,10.7c-2.9-0.9-5.6-1.4-8-1.4c-2.1,0-3.6,0.6-4.5,1.8c-0.9,1.3-1.4,2.8-1.4,4.7v3.3h12.5
			L-1116.3,132.5L-1116.3,132.5z M-1108.6,107.8c0-4.7,2.6-7.1,7.9-7.1c5.3,0,7.9,2.4,7.9,7.1c0,2.3-0.7,4-2,5.3
			c-1.3,1.3-3.3,1.8-6,1.8C-1106,114.9-1108.6,112.7-1108.6,107.8z M-1093.4,174.9h-14.5v-53.3h14.5V174.9z"/>
		<path class="st0" d="M-1049.7,120.6c2,0,3.6,0.1,4.9,0.5l-1.1,13.7c-1.1-0.3-2.6-0.5-4.2-0.5c-4.6,0-8.3,1.1-10.8,3.6
			c-2.5,2.4-3.9,5.7-3.9,10V175h-14.5v-53.3h11l2.2,9h0.7c1.6-3,3.9-5.4,6.7-7.2C-1056,121.5-1052.9,120.6-1049.7,120.6z"/>
		<path class="st0" d="M-999.1,159c0,5.5-1.8,9.6-5.6,12.5s-9.4,4.2-17,4.2c-3.9,0-7.1-0.2-9.9-0.8c-2.8-0.6-5.3-1.3-7.7-2.3v-12.1
			c2.6,1.3,5.7,2.3,9.1,3.2c3.3,0.9,6.3,1.3,9,1.3c5.3,0,7.9-1.5,7.9-4.6c0-1.1-0.3-2.1-1-2.8s-2-1.5-3.6-2.4c-1.7-0.9-4-2-6.9-3.2
			c-4.1-1.7-7.1-3.3-9-4.8c-2-1.5-3.3-3.1-4.1-5.1s-1.3-4.2-1.3-7c0-4.7,1.8-8.4,5.5-11c3.7-2.6,8.8-3.9,15.6-3.9
			c6.4,0,12.6,1.4,18.7,4.2l-4.4,10.4c-2.6-1.1-5.2-2.1-7.5-2.8s-4.7-1.1-7.1-1.1c-4.2,0-6.4,1.1-6.4,3.4c0,1.3,0.7,2.4,2.1,3.3
			c1.4,0.9,4.4,2.4,9.1,4.2c4.1,1.7,7.2,3.2,9.1,4.7c2,1.5,3.3,3.1,4.2,5.1C-999.5,154.2-999.1,156.4-999.1,159z"/>
		<path class="st0" d="M-966.4,164.3c2.5,0,5.6-0.6,9.1-1.7v10.8c-3.6,1.6-8,2.4-13.3,2.4c-5.7,0-10-1.5-12.6-4.4
			c-2.6-3-4-7.3-4-13.2v-25.7h-6.9v-6.2l8-4.8l4.1-11.3h9.3v11.4h15v10.9h-15v25.7c0,2.1,0.6,3.6,1.7,4.6
			C-969.8,163.7-968.2,164.3-966.4,164.3z"/>
	</g>
	<g>
		<path class="st1" d="M-1185.7,176.8h-133.2c-9.5,0-17.2-7.7-17.2-17.2V26.4c0-9.5,7.7-17.2,17.2-17.2h133.2
			c9.5,0,17.2,7.7,17.2,17.2v133.3C-1168.5,169.1-1176.2,176.8-1185.7,176.8z"/>
		<path class="st2" d="M-1280.3,152.9c-6.7-12.9-4.1-24.2,0.9-54.3c3.9-23.5,25.2-33.7,44.5-21.9c22,13.3,37.6,22,42.9,32.7
			c5.2,10.6-2.3,16.1-13.8,21.6c-11.6,5.5-18.8-4.7-29.8,0.7c-9.6,4.7-7.7,18-20.6,24.4C-1269.7,162.7-1276,161.1-1280.3,152.9z"/>
		
			<ellipse transform="matrix(0.897 -0.442 0.442 0.897 -179.5521 -564.6869)" class="st2" cx="-1301.5" cy="103" rx="13.2" ry="17.2"/>
		
			<ellipse transform="matrix(0.897 -0.442 0.442 0.897 -154.5945 -531.211)" class="st2" cx="-1217.2" cy="66.1" rx="13.2" ry="17.2"/>
		
			<ellipse transform="matrix(0.897 -0.442 0.442 0.897 -160.8637 -564.8914)" class="st2" cx="-1292.6" cy="62.8" rx="15.1" ry="19.3"/>
		
			<ellipse transform="matrix(0.897 -0.442 0.442 0.897 -149.8722 -550.5338)" class="st2" cx="-1256.3" cy="46.3" rx="15.1" ry="19.3"/>
		<polygon class="st3" points="-1233.9,90.5 -1245.7,96.8 -1251.7,85.7 -1263.8,92.1 -1257.9,103.3 -1269.2,109.3 -1262.7,121.4 
			-1251.4,115.4 -1245,127.4 -1232.9,120.9 -1239.3,109 -1227.4,102.7 		"/>
	</g>
</g>
<g>
	<circle class="st1" cx="-778.4" cy="425.9" r="86.8"/>
	<g>
		<path class="st2" d="M-803.6,483.3c-6.7-12.9-4.1-24.2,0.9-54.3c3.9-23.5,25.2-33.7,44.5-21.9c22,13.3,37.6,22,42.9,32.7
			c5.2,10.6-2.3,16.1-13.8,21.6c-11.6,5.5-18.8-4.7-29.8,0.7c-9.6,4.7-7.7,18-20.6,24.4C-793,493.1-799.3,491.5-803.6,483.3z"/>
		
			<ellipse transform="matrix(0.897 -0.442 0.442 0.897 -276.4778 -319.9645)" class="st2" cx="-824.9" cy="433.3" rx="13.2" ry="17.2"/>
		
			<ellipse transform="matrix(0.897 -0.442 0.442 0.897 -251.549 -286.5236)" class="st2" cx="-740.6" cy="396.5" rx="13.2" ry="17.2"/>
		
			<ellipse transform="matrix(0.897 -0.442 0.442 0.897 -257.7894 -320.1689)" class="st2" cx="-815.9" cy="393.1" rx="15.1" ry="19.3"/>
		
			<ellipse transform="matrix(0.897 -0.442 0.442 0.897 -246.8266 -305.8464)" class="st2" cx="-779.7" cy="376.7" rx="15.1" ry="19.3"/>
		<polygon class="st3" points="-757.2,420.9 -769,427.2 -775,416.1 -787.1,422.5 -781.2,433.7 -792.5,439.7 -786,451.8 
			-774.7,445.8 -768.4,457.8 -756.2,451.3 -762.6,439.4 -750.8,433.1 		"/>
	</g>
</g>
<g>
	<circle class="st1" cx="-182.1" cy="587.5" r="86.8"/>
	<g>
		<path class="st2" d="M-207.3,644.9c-6.7-12.9-4.1-24.2,0.9-54.3c3.9-23.5,25.2-33.7,44.5-21.9c22,13.3,37.6,22,42.9,32.7
			c5.2,10.6-2.3,16.1-13.8,21.6c-11.6,5.5-18.8-4.7-29.8,0.7c-9.6,4.7-7.7,18-20.6,24.4C-196.7,654.7-203,653.1-207.3,644.9z"/>
		
			<ellipse transform="matrix(0.897 -0.442 0.442 0.897 -286.5134 -39.7453)" class="st2" cx="-228.5" cy="595" rx="13.2" ry="17.2"/>
		
			<ellipse transform="matrix(0.897 -0.442 0.442 0.897 -261.5845 -6.3043)" class="st2" cx="-144.3" cy="558.2" rx="13.2" ry="17.2"/>
		
			<ellipse transform="matrix(0.897 -0.442 0.442 0.897 -267.8249 -39.9496)" class="st2" cx="-219.6" cy="554.8" rx="15.1" ry="19.3"/>
		
			<ellipse transform="matrix(0.897 -0.442 0.442 0.897 -256.8622 -25.6271)" class="st2" cx="-183.4" cy="538.4" rx="15.1" ry="19.3"/>
		<polygon class="st3" points="-160.9,582.5 -172.7,588.8 -178.7,577.7 -190.8,584.1 -184.9,595.3 -196.2,601.3 -189.7,613.4 
			-178.4,607.4 -172.1,619.4 -159.9,612.9 -166.3,601 -154.5,594.7 		"/>
	</g>
</g>
<g>
	<g>
		<path class="st1" d="M-1025,448.2c0,2-1.6,3.6-3.6,3.6h-250.6c-2,0-3.6-1.6-3.6-3.6V336.9c0-2,1.6-3.6,3.6-3.6h250.6
			c2,0,3.6,1.6,3.6,3.6V448.2z"/>
	</g>
	<g>
		<path class="st2" d="M-1135.4,381.3c-3.3,0-5.9-1.2-7.8-3.6h-0.4c0.3,2.3,0.4,3.7,0.4,4.1v11.4h-7.7v-40.5h6.2l1.1,3.7h0.4
			c1.8-2.8,4.4-4.2,8-4.2c3.3,0,5.9,1.3,7.8,3.9s2.8,6.1,2.8,10.7c0,3-0.4,5.6-1.3,7.8s-2.1,3.9-3.8,5.1
			C-1131.3,380.7-1133.2,381.3-1135.4,381.3z M-1137.7,358.3c-1.9,0-3.3,0.6-4.1,1.8c-0.9,1.2-1.3,3.1-1.4,5.8v0.8
			c0,3,0.4,5.2,1.3,6.5s2.3,2,4.3,2c3.4,0,5.1-2.8,5.1-8.5c0-2.8-0.4-4.8-1.3-6.2C-1134.5,359-1135.9,358.3-1137.7,358.3z"/>
		<path class="st2" d="M-1106.1,381.3c-4.5,0-8.1-1.3-10.6-3.8s-3.8-6-3.8-10.6c0-4.7,1.2-8.4,3.5-10.9c2.4-2.6,5.6-3.9,9.8-3.9
			c4,0,7.1,1.1,9.3,3.4s3.3,5.4,3.3,9.4v3.7h-18.1c0.1,2.2,0.7,3.9,1.9,5.1c1.2,1.2,2.9,1.8,5.1,1.8c1.7,0,3.3-0.2,4.8-0.5
			c1.5-0.4,3.1-0.9,4.7-1.7v5.9c-1.3,0.7-2.8,1.2-4.3,1.5C-1102,381.2-1103.9,381.3-1106.1,381.3z M-1107.2,357.6
			c-1.6,0-2.9,0.5-3.8,1.5s-1.4,2.5-1.6,4.4h10.7c0-1.9-0.5-3.4-1.5-4.4S-1105.5,357.6-1107.2,357.6z"/>
		<path class="st2" d="M-1077.1,375.2c1.3,0,2.9-0.3,4.8-0.9v5.7c-1.9,0.9-4.3,1.3-7,1.3c-3.1,0-5.3-0.8-6.7-2.3s-2.1-3.9-2.1-7
			v-13.6h-3.7v-3.2l4.2-2.6l2.2-5.9h4.9v6h7.9v5.8h-7.9v13.6c0,1.1,0.3,1.9,0.9,2.4C-1079,375-1078.1,375.2-1077.1,375.2z"/>
		<path class="st2" d="M-1047.5,372.5c0,2.9-1,5.1-3,6.6s-5,2.3-9,2.3c-2,0-3.8-0.1-5.2-0.4c-1.4-0.3-2.8-0.7-4-1.2v-6.3
			c1.4,0.7,3,1.2,4.8,1.7c1.8,0.5,3.4,0.7,4.7,0.7c2.8,0,4.2-0.8,4.2-2.4c0-0.6-0.2-1.1-0.6-1.5c-0.4-0.4-1-0.8-1.9-1.3
			s-2.1-1-3.6-1.7c-2.2-0.9-3.7-1.7-4.8-2.5c-1-0.8-1.7-1.7-2.2-2.7s-0.7-2.2-0.7-3.7c0-2.5,1-4.4,2.9-5.8s4.7-2.1,8.2-2.1
			c3.4,0,6.7,0.7,9.9,2.2l-2.3,5.5c-1.4-0.6-2.7-1.1-3.9-1.5c-1.2-0.4-2.5-0.6-3.7-0.6c-2.3,0-3.4,0.6-3.4,1.8
			c0,0.7,0.4,1.3,1.1,1.8c0.7,0.5,2.3,1.3,4.8,2.2c2.2,0.9,3.8,1.7,4.8,2.5s1.8,1.7,2.3,2.7
			C-1047.8,369.9-1047.5,371.1-1047.5,372.5z"/>
		<path class="st2" d="M-1135.3,414.9h-6.6v22.4h-7.7v-22.4h-4.2v-3.7l4.2-2.1V407c0-3.2,0.8-5.5,2.4-7s4.1-2.2,7.6-2.2
			c2.6,0,5,0.4,7.1,1.2l-2,5.6c-1.5-0.5-3-0.7-4.3-0.7c-1.1,0-1.9,0.3-2.4,1c-0.5,0.6-0.7,1.5-0.7,2.5v1.8h6.6V414.9L-1135.3,414.9z
			 M-1131.2,401.9c0-2.5,1.4-3.8,4.2-3.8c2.8,0,4.2,1.2,4.2,3.8c0,1.2-0.3,2.1-1,2.8s-1.7,1-3.1,1
			C-1129.8,405.6-1131.2,404.4-1131.2,401.9z M-1123.2,437.3h-7.7v-28.2h7.7V437.3z"/>
		<path class="st2" d="M-1100.1,408.6c1,0,1.9,0.1,2.6,0.2l-0.6,7.2c-0.6-0.2-1.4-0.3-2.3-0.3c-2.4,0-4.3,0.6-5.7,1.9s-2,3-2,5.3
			v14.3h-7.7V409h5.8l1.1,4.7h0.4c0.9-1.6,2-2.8,3.5-3.8C-1103.4,409.1-1101.8,408.6-1100.1,408.6z"/>
		<path class="st2" d="M-1073.3,428.9c0,2.9-1,5.1-3,6.6s-5,2.3-9,2.3c-2,0-3.8-0.1-5.2-0.4s-2.8-0.7-4-1.2v-6.3
			c1.4,0.7,3,1.2,4.8,1.7c1.8,0.5,3.4,0.7,4.7,0.7c2.8,0,4.2-0.8,4.2-2.4c0-0.6-0.2-1.1-0.6-1.5s-1-0.8-1.9-1.3s-2.1-1-3.6-1.7
			c-2.2-0.9-3.7-1.7-4.8-2.5c-1-0.8-1.7-1.7-2.2-2.7s-0.7-2.2-0.7-3.7c0-2.5,1-4.4,2.9-5.8s4.7-2.1,8.2-2.1c3.4,0,6.7,0.7,9.9,2.2
			l-2.3,5.5c-1.4-0.6-2.7-1.1-3.9-1.5s-2.5-0.6-3.7-0.6c-2.3,0-3.4,0.6-3.4,1.8c0,0.7,0.4,1.3,1.1,1.8c0.7,0.5,2.3,1.3,4.8,2.2
			c2.2,0.9,3.8,1.7,4.8,2.5s1.8,1.7,2.3,2.7C-1073.6,426.3-1073.3,427.5-1073.3,428.9z"/>
		<path class="st2" d="M-1056,431.7c1.3,0,2.9-0.3,4.8-0.9v5.7c-1.9,0.9-4.3,1.3-7,1.3c-3.1,0-5.3-0.8-6.7-2.3s-2.1-3.9-2.1-7v-13.6
			h-3.7v-3.2l4.2-2.6l2.2-5.9h4.9v6h7.9v5.8h-7.9v13.6c0,1.1,0.3,1.9,0.9,2.4S-1057.1,431.7-1056,431.7z"/>
	</g>
	<g>
		<path class="st2" d="M-1243,437.7c-4.9-9.3-3-17.5,0.7-39.3c2.8-17,18.2-24.4,32.2-15.9c16,9.6,27.2,15.9,31,23.7
			c3.8,7.7-1.6,11.7-10,15.7c-8.4,4-13.6-3.4-21.6,0.5c-7,3.4-5.6,13-14.9,17.6C-1235.4,444.8-1239.9,443.7-1243,437.7z"/>
		
			<ellipse transform="matrix(0.897 -0.442 0.442 0.897 -307.0933 -514.8852)" class="st2" cx="-1258.4" cy="401.6" rx="9.5" ry="12.4"/>
		
			<ellipse transform="matrix(0.897 -0.442 0.442 0.897 -289.0139 -490.6762)" class="st2" cx="-1197.5" cy="374.9" rx="9.5" ry="12.4"/>
		
			<ellipse transform="matrix(0.897 -0.442 0.442 0.897 -293.5767 -515.0466)" class="st2" cx="-1252" cy="372.5" rx="10.9" ry="14"/>
		
			<ellipse transform="matrix(0.897 -0.442 0.442 0.897 -285.6046 -504.6529)" class="st2" cx="-1225.7" cy="360.6" rx="10.9" ry="14"/>
		<polygon class="st5" points="-1209.5,392.6 -1218,397.1 -1222.3,389.1 -1231.1,393.7 -1226.8,401.8 -1235,406.2 -1230.3,415 
			-1222.1,410.6 -1217.5,419.3 -1208.7,414.6 -1213.3,405.9 -1204.8,401.4 		"/>
	</g>
</g>
<g>
	<g>
		<path class="st1" d="M291.7,142.4c0,2-1.6,3.6-3.6,3.6H37.5c-2,0-3.6-1.6-3.6-3.6V31.1c0-2,1.6-3.6,3.6-3.6h250.6
			c2,0,3.6,1.6,3.6,3.6V142.4z"/>
	</g>
	<g>
		<path class="st2" d="M181.3,75.5c-3.3,0-5.9-1.2-7.8-3.6h-0.4c0.3,2.3,0.4,3.7,0.4,4.1v11.4h-7.7V46.9h6.2l1.1,3.7h0.4
			c1.8-2.8,4.4-4.2,8-4.2c3.3,0,5.9,1.3,7.8,3.9c1.9,2.6,2.8,6.1,2.8,10.7c0,3-0.4,5.6-1.3,7.8s-2.1,3.9-3.8,5.1
			C185.4,74.9,183.5,75.5,181.3,75.5z M179,52.5c-1.9,0-3.3,0.6-4.1,1.8c-0.9,1.2-1.3,3.1-1.4,5.8v0.8c0,3,0.4,5.2,1.3,6.5
			c0.9,1.3,2.3,2,4.3,2c3.4,0,5.1-2.8,5.1-8.5c0-2.8-0.4-4.8-1.3-6.2C182.2,53.2,180.8,52.5,179,52.5z"/>
		<path class="st2" d="M210.6,75.5c-4.5,0-8.1-1.3-10.6-3.8s-3.8-6-3.8-10.6c0-4.7,1.2-8.4,3.5-10.9c2.4-2.6,5.6-3.9,9.8-3.9
			c4,0,7.1,1.1,9.3,3.4c2.2,2.3,3.3,5.4,3.3,9.4v3.7H204c0.1,2.2,0.7,3.9,1.9,5.1c1.2,1.2,2.9,1.8,5.1,1.8c1.7,0,3.3-0.2,4.8-0.5
			c1.5-0.4,3.1-0.9,4.7-1.7v5.9c-1.3,0.7-2.8,1.2-4.3,1.5C214.7,75.4,212.8,75.5,210.6,75.5z M209.5,51.8c-1.6,0-2.9,0.5-3.8,1.5
			s-1.4,2.5-1.6,4.4h10.7c0-1.9-0.5-3.4-1.5-4.4S211.2,51.8,209.5,51.8z"/>
		<path class="st2" d="M239.6,69.4c1.3,0,2.9-0.3,4.8-0.9v5.7c-1.9,0.9-4.3,1.3-7,1.3c-3.1,0-5.3-0.8-6.7-2.3s-2.1-3.9-2.1-7V52.6
			h-3.7v-3.2l4.2-2.6l2.2-5.9h4.9v6h7.9v5.8h-7.9v13.6c0,1.1,0.3,1.9,0.9,2.4S238.6,69.4,239.6,69.4z"/>
		<path class="st2" d="M269.2,66.7c0,2.9-1,5.1-3,6.6s-5,2.3-9,2.3c-2,0-3.8-0.1-5.2-0.4c-1.4-0.3-2.8-0.7-4-1.2v-6.3
			c1.4,0.7,3,1.2,4.8,1.7s3.4,0.7,4.7,0.7c2.8,0,4.2-0.8,4.2-2.4c0-0.6-0.2-1.1-0.6-1.5s-1-0.8-1.9-1.3s-2.1-1-3.6-1.7
			c-2.2-0.9-3.7-1.7-4.8-2.5c-1-0.8-1.7-1.7-2.2-2.7s-0.7-2.2-0.7-3.7c0-2.5,1-4.4,2.9-5.8s4.7-2.1,8.2-2.1c3.4,0,6.7,0.7,9.9,2.2
			l-2.3,5.5c-1.4-0.6-2.7-1.1-3.9-1.5c-1.2-0.4-2.5-0.6-3.7-0.6c-2.3,0-3.4,0.6-3.4,1.8c0,0.7,0.4,1.3,1.1,1.8s2.3,1.3,4.8,2.2
			c2.2,0.9,3.8,1.7,4.8,2.5s1.8,1.7,2.3,2.7C268.9,64.1,269.2,65.3,269.2,66.7z"/>
		<path class="st2" d="M181.4,109.1h-6.6v22.4h-7.7v-22.4h-4.2v-3.7l4.2-2.1v-2.1c0-3.2,0.8-5.5,2.4-7c1.6-1.5,4.1-2.2,7.6-2.2
			c2.6,0,5,0.4,7.1,1.2l-2,5.6c-1.5-0.5-3-0.7-4.3-0.7c-1.1,0-1.9,0.3-2.4,1c-0.5,0.6-0.7,1.5-0.7,2.5v1.8h6.6L181.4,109.1
			L181.4,109.1z M185.5,96.1c0-2.5,1.4-3.8,4.2-3.8s4.2,1.2,4.2,3.8c0,1.2-0.3,2.1-1,2.8s-1.7,1-3.1,1
			C186.9,99.8,185.5,98.6,185.5,96.1z M193.5,131.5h-7.7v-28.2h7.7V131.5z"/>
		<path class="st2" d="M216.6,102.8c1,0,1.9,0.1,2.6,0.2l-0.6,7.2c-0.6-0.2-1.4-0.3-2.3-0.3c-2.4,0-4.3,0.6-5.7,1.9
			c-1.4,1.3-2,3-2,5.3v14.3h-7.7v-28.2h5.8l1.1,4.7h0.4c0.9-1.6,2-2.8,3.5-3.8C213.3,103.3,214.9,102.8,216.6,102.8z"/>
		<path class="st2" d="M243.4,123.1c0,2.9-1,5.1-3,6.6s-5,2.3-9,2.3c-2,0-3.8-0.1-5.2-0.4c-1.4-0.3-2.8-0.7-4-1.2v-6.3
			c1.4,0.7,3,1.2,4.8,1.7s3.4,0.7,4.7,0.7c2.8,0,4.2-0.8,4.2-2.4c0-0.6-0.2-1.1-0.6-1.5s-1-0.8-1.9-1.3s-2.1-1-3.6-1.7
			c-2.2-0.9-3.7-1.7-4.8-2.5c-1-0.8-1.7-1.7-2.2-2.7s-0.7-2.2-0.7-3.7c0-2.5,1-4.4,2.9-5.8s4.7-2.1,8.2-2.1c3.4,0,6.7,0.7,9.9,2.2
			l-2.3,5.5c-1.4-0.6-2.7-1.1-3.9-1.5c-1.2-0.4-2.5-0.6-3.7-0.6c-2.3,0-3.4,0.6-3.4,1.8c0,0.7,0.4,1.3,1.1,1.8s2.3,1.3,4.8,2.2
			c2.2,0.9,3.8,1.7,4.8,2.5s1.8,1.7,2.3,2.7C243.1,120.5,243.4,121.7,243.4,123.1z"/>
		<path class="st2" d="M260.7,125.9c1.3,0,2.9-0.3,4.8-0.9v5.7c-1.9,0.9-4.3,1.3-7,1.3c-3.1,0-5.3-0.8-6.7-2.3s-2.1-3.9-2.1-7v-13.6
			H246v-3.2l4.2-2.6l2.2-5.9h4.9v6h7.9v5.8h-7.9v13.6c0,1.1,0.3,1.9,0.9,2.4S259.6,125.9,260.7,125.9z"/>
	</g>
	<g>
		<path class="st2" d="M73.7,131.9c-4.9-9.3-3-17.5,0.7-39.3c2.8-17,18.2-24.4,32.2-15.9c16,9.6,27.2,15.9,31,23.7
			c3.8,7.7-1.6,11.7-10,15.7s-13.6-3.4-21.6,0.5c-7,3.4-5.6,13-14.9,17.6C81.3,139,76.8,137.9,73.7,131.9z"/>
		<ellipse transform="matrix(0.897 -0.442 0.442 0.897 -36.3112 35.6483)" class="st2" cx="58.3" cy="95.7" rx="9.5" ry="12.4"/>
		<ellipse transform="matrix(0.897 -0.442 0.442 0.897 -18.2318 59.8573)" class="st2" cx="119.3" cy="69.1" rx="9.5" ry="12.4"/>
		<ellipse transform="matrix(0.897 -0.442 0.442 0.897 -22.7949 35.4866)" class="st2" cx="64.8" cy="66.7" rx="10.9" ry="14"/>
		<ellipse transform="matrix(0.897 -0.442 0.442 0.897 -14.8225 45.8806)" class="st2" cx="91" cy="54.7" rx="10.9" ry="14"/>
		<polygon class="st5" points="107.2,86.8 98.7,91.3 94.4,83.3 85.6,87.9 89.9,96 81.7,100.4 86.4,109.2 94.6,104.8 99.2,113.5 
			108,108.8 103.4,100.1 111.9,95.6 		"/>
	</g>
</g>
</svg>
