<?xml version="1.0" encoding="utf-8"?>
<!-- Generator: Adobe Illustrator 23.0.0, SVG Export Plug-In . SVG Version: 6.00 Build 0)  -->
<svg version="1.1" id="Layer_1" xmlns="http://www.w3.org/2000/svg" xmlns:xlink="http://www.w3.org/1999/xlink" x="0px" y="0px"
	 viewBox="0 0 446.6 229.8" style="enable-background:new 0 0 446.6 229.8;" xml:space="preserve">
<style type="text/css">
	.st0{fill:#334051;}
	.st1{fill:#F8A076;}
	.st2{fill:#FFFFFF;}
	.st3{fill:#F8A076;stroke:#334051;stroke-width:4;stroke-linejoin:round;stroke-miterlimit:10;}
	.st4{fill:#FFFFFF;stroke:#334051;stroke-width:4;stroke-linejoin:round;stroke-miterlimit:10;}
	.st5{fill:#F8A076;stroke:#334051;stroke-width:2.8961;stroke-linejoin:round;stroke-miterlimit:10;}
</style>
<g>
	<g>
		<path class="st0" d="M250.9,98.5c-6.2,0-11.1-2.3-14.7-6.8h-0.8c0.5,4.5,0.8,7,0.8,7.7V121h-14.5V44.3h11.8l2.1,6.9h0.7
			c3.4-5.3,8.4-7.9,15-7.9c6.3,0,11.1,2.4,14.7,7.3c3.6,4.8,5.3,11.6,5.3,20.2c0,5.7-0.8,10.7-2.5,14.8c-1.6,4.2-4,7.3-7.1,9.5
			C258.7,97.4,255.1,98.5,250.9,98.5z M246.7,55c-3.6,0-6.2,1.1-7.8,3.3c-1.6,2.2-2.5,5.9-2.5,10.9v1.6c0,5.7,0.8,9.9,2.5,12.3
			c1.7,2.5,4.4,3.7,8,3.7c6.5,0,9.8-5.4,9.8-16.1c0-5.3-0.8-9.2-2.4-11.8S250.1,55,246.7,55z"/>
		<path class="st0" d="M306.5,98.5c-8.5,0-15.3-2.4-20.1-7.1c-4.8-4.7-7.2-11.5-7.2-20.1c0-9,2.2-15.8,6.7-20.7
			c4.5-4.8,10.6-7.3,18.5-7.3c7.5,0,13.3,2.2,17.6,6.4c4.2,4.2,6.3,10.2,6.3,17.8v7h-34.2c0.1,4.1,1.4,7.3,3.7,9.6s5.5,3.4,9.6,3.4
			c3.2,0,6.2-0.3,9.1-1s5.9-1.7,9-3.2v11.3c-2.5,1.3-5.3,2.2-8.2,2.9C314.1,98.2,310.6,98.5,306.5,98.5z M304.4,53.6
			c-3.1,0-5.5,1-7.2,3s-2.8,4.7-3,8.3h20.3c-0.1-3.6-1-6.3-2.8-8.3S307.4,53.6,304.4,53.6z"/>
		<path class="st0" d="M361.3,87c2.5,0,5.6-0.6,9.1-1.7v10.8c-3.6,1.6-8,2.4-13.3,2.4c-5.7,0-10-1.5-12.6-4.4c-2.6-3-4-7.3-4-13.2
			V55.2h-6.9V49l8-4.8l4.1-11.3h9.3v11.4h14.9v10.9H355v25.7c0,2.1,0.6,3.6,1.7,4.6C357.8,86.4,359.4,87,361.3,87z"/>
		<path class="st0" d="M417.3,81.7c0,5.5-1.8,9.6-5.6,12.5c-3.8,2.9-9.4,4.2-17,4.2c-3.9,0-7.1-0.2-9.9-0.8s-5.3-1.3-7.7-2.3V83.2
			c2.6,1.3,5.7,2.3,9.1,3.2s6.3,1.3,9,1.3c5.3,0,7.9-1.5,7.9-4.6c0-1.1-0.3-2.1-1-2.8c-0.7-0.7-2-1.5-3.6-2.4c-1.7-0.9-4-2-6.9-3.2
			c-4.1-1.7-7.1-3.3-9-4.8c-2-1.5-3.3-3.1-4.1-5.1c-0.8-2-1.3-4.2-1.3-7c0-4.7,1.8-8.4,5.5-11s8.8-3.9,15.6-3.9
			c6.4,0,12.6,1.4,18.7,4.2l-4.4,10.4c-2.6-1.1-5.2-2.1-7.5-2.8c-2.3-0.7-4.7-1.1-7.1-1.1c-4.2,0-6.4,1.1-6.4,3.4
			c0,1.3,0.7,2.4,2.1,3.3s4.4,2.4,9.1,4.2c4.1,1.7,7.2,3.2,9.1,4.7c2,1.5,3.3,3.1,4.2,5.1C416.8,76.9,417.3,79.1,417.3,81.7z"/>
		<path class="st0" d="M253.1,156.2h-12.5v42.4h-14.5v-42.4h-8v-7l8-3.9v-3.9c0-6.1,1.5-10.4,4.5-13.3c3-2.8,7.7-4.2,14.4-4.2
			c5.1,0,9.4,0.8,13.3,2.3l-3.7,10.7c-2.9-0.9-5.6-1.4-8-1.4c-2.1,0-3.6,0.6-4.5,1.8c-0.9,1.3-1.4,2.8-1.4,4.7v3.3h12.5L253.1,156.2
			L253.1,156.2z M260.8,131.5c0-4.7,2.6-7.1,7.9-7.1s7.9,2.4,7.9,7.1c0,2.3-0.7,4-2,5.3s-3.3,1.8-6,1.8
			C263.4,138.6,260.8,136.4,260.8,131.5z M276,198.6h-14.5v-53.3H276V198.6z"/>
		<path class="st0" d="M319.7,144.3c2,0,3.6,0.1,4.9,0.5l-1.1,13.7c-1.1-0.3-2.6-0.5-4.2-0.5c-4.6,0-8.3,1.1-10.8,3.6
			c-2.5,2.4-3.9,5.7-3.9,10v27.1h-14.5v-53.3h11l2.2,9h0.7c1.6-3,3.9-5.4,6.7-7.2C313.4,145.2,316.5,144.3,319.7,144.3z"/>
		<path class="st0" d="M370.3,182.7c0,5.5-1.8,9.6-5.6,12.5c-3.8,2.9-9.4,4.2-17,4.2c-3.9,0-7.1-0.2-9.9-0.8s-5.3-1.3-7.7-2.3v-12.1
			c2.6,1.3,5.7,2.3,9.1,3.2c3.3,0.9,6.3,1.3,9,1.3c5.3,0,7.9-1.5,7.9-4.6c0-1.1-0.3-2.1-1-2.8s-2-1.5-3.6-2.4c-1.7-0.9-4-2-6.9-3.2
			c-4.1-1.7-7.1-3.3-9-4.8c-2-1.5-3.3-3.1-4.1-5.1c-0.8-2-1.3-4.2-1.3-7c0-4.7,1.8-8.4,5.5-11s8.8-3.9,15.6-3.9
			c6.4,0,12.6,1.4,18.7,4.2l-4.4,10.4c-2.6-1.1-5.2-2.1-7.5-2.8s-4.7-1.1-7.1-1.1c-4.2,0-6.4,1.1-6.4,3.4c0,1.3,0.7,2.4,2.1,3.3
			c1.4,0.9,4.4,2.4,9.1,4.2c4.1,1.7,7.2,3.2,9.1,4.7c2,1.5,3.3,3.1,4.2,5.1C369.9,177.9,370.3,180.1,370.3,182.7z"/>
		<path class="st0" d="M403,188c2.5,0,5.6-0.6,9.1-1.7v10.8c-3.6,1.6-8,2.4-13.3,2.4c-5.7,0-10-1.5-12.6-4.4c-2.6-3-4-7.3-4-13.2
			v-25.7h-6.9V150l8-4.8l4.1-11.3h9.3v11.4h15v10.9h-15v25.7c0,2.1,0.6,3.6,1.7,4.6C399.6,187.4,401.2,188,403,188z"/>
	</g>
	<g>
		<path class="st1" d="M183.7,200.5H50.5c-9.5,0-17.2-7.7-17.2-17.2V50.1c0-9.5,7.7-17.2,17.2-17.2h133.2c9.5,0,17.2,7.7,17.2,17.2
			v133.3C200.9,192.8,193.2,200.5,183.7,200.5z"/>
		<path class="st2" d="M89.1,176.6c-6.7-12.9-4.1-24.2,0.9-54.3c3.9-23.5,25.2-33.7,44.5-21.9c22,13.3,37.6,22,42.9,32.7
			c5.2,10.6-2.3,16.1-13.8,21.6c-11.6,5.5-18.8-4.7-29.8,0.7c-9.6,4.7-7.7,18-20.6,24.4C99.7,186.4,93.4,184.8,89.1,176.6z"/>
		<ellipse transform="matrix(0.897 -0.442 0.442 0.897 -48.9972 43.0633)" class="st2" cx="67.9" cy="126.7" rx="13.2" ry="17.2"/>
		<ellipse transform="matrix(0.897 -0.442 0.442 0.897 -24.0396 76.5394)" class="st2" cx="152.2" cy="89.9" rx="13.2" ry="17.2"/>
		<ellipse transform="matrix(0.897 -0.442 0.442 0.897 -30.3088 42.859)" class="st2" cx="76.8" cy="86.5" rx="15.1" ry="19.3"/>
		<ellipse transform="matrix(0.897 -0.442 0.442 0.897 -19.3172 57.2166)" class="st2" cx="113.1" cy="70.1" rx="15.1" ry="19.3"/>
		<polygon class="st3" points="135.5,114.2 123.7,120.5 117.7,109.4 105.6,115.8 111.5,127 100.2,133 106.7,145.1 118,139.1 
			124.4,151.1 136.5,144.6 130.1,132.7 142,126.4 		"/>
	</g>
</g>
</svg>
