<?xml version="1.0" encoding="utf-8"?>
<!-- Generator: Adobe Illustrator 23.0.0, SVG Export Plug-In . SVG Version: 6.00 Build 0)  -->
<svg version="1.1" id="Layer_1" xmlns="http://www.w3.org/2000/svg" xmlns:xlink="http://www.w3.org/1999/xlink" x="0px" y="0px"
	 viewBox="0 0 325.5 175" style="enable-background:new 0 0 325.5 175;" xml:space="preserve">
<style type="text/css">
	.st0{fill:#334051;}
	.st1{fill:#F8A076;}
	.st2{fill:#FFFFFF;}
	.st3{fill:#F8A076;stroke:#334051;stroke-width:4;stroke-linejoin:round;stroke-miterlimit:10;}
	.st4{fill:#FFFFFF;stroke:#334051;stroke-width:4;stroke-linejoin:round;stroke-miterlimit:10;}
	.st5{fill:#F8A076;stroke:#334051;stroke-width:2.8961;stroke-linejoin:round;stroke-miterlimit:10;}
</style>
<g>
	<g>
		<path class="st1" d="M291.7,142.4c0,2-1.6,3.6-3.6,3.6H37.5c-2,0-3.6-1.6-3.6-3.6V31.1c0-2,1.6-3.6,3.6-3.6h250.6
			c2,0,3.6,1.6,3.6,3.6V142.4z"/>
	</g>
	<g>
		<path class="st2" d="M181.3,75.5c-3.3,0-5.9-1.2-7.8-3.6h-0.4c0.3,2.3,0.4,3.7,0.4,4.1v11.4h-7.7V46.9h6.2l1.1,3.7h0.4
			c1.8-2.8,4.4-4.2,8-4.2c3.3,0,5.9,1.3,7.8,3.9c1.9,2.6,2.8,6.1,2.8,10.7c0,3-0.4,5.6-1.3,7.8s-2.1,3.9-3.8,5.1
			C185.4,74.9,183.5,75.5,181.3,75.5z M179,52.5c-1.9,0-3.3,0.6-4.1,1.8c-0.9,1.2-1.3,3.1-1.4,5.8v0.8c0,3,0.4,5.2,1.3,6.5
			c0.9,1.3,2.3,2,4.3,2c3.4,0,5.1-2.8,5.1-8.5c0-2.8-0.4-4.8-1.3-6.2C182.2,53.2,180.8,52.5,179,52.5z"/>
		<path class="st2" d="M210.6,75.5c-4.5,0-8.1-1.3-10.6-3.8s-3.8-6-3.8-10.6c0-4.7,1.2-8.4,3.5-10.9c2.4-2.6,5.6-3.9,9.8-3.9
			c4,0,7.1,1.1,9.3,3.4c2.2,2.3,3.3,5.4,3.3,9.4v3.7H204c0.1,2.2,0.7,3.9,1.9,5.1c1.2,1.2,2.9,1.8,5.1,1.8c1.7,0,3.3-0.2,4.8-0.5
			c1.5-0.4,3.1-0.9,4.7-1.7v5.9c-1.3,0.7-2.8,1.2-4.3,1.5C214.7,75.4,212.8,75.5,210.6,75.5z M209.5,51.8c-1.6,0-2.9,0.5-3.8,1.5
			s-1.4,2.5-1.6,4.4h10.7c0-1.9-0.5-3.4-1.5-4.4S211.2,51.8,209.5,51.8z"/>
		<path class="st2" d="M239.6,69.4c1.3,0,2.9-0.3,4.8-0.9v5.7c-1.9,0.9-4.3,1.3-7,1.3c-3.1,0-5.3-0.8-6.7-2.3s-2.1-3.9-2.1-7V52.6
			h-3.7v-3.2l4.2-2.6l2.2-5.9h4.9v6h7.9v5.8h-7.9v13.6c0,1.1,0.3,1.9,0.9,2.4S238.6,69.4,239.6,69.4z"/>
		<path class="st2" d="M269.2,66.7c0,2.9-1,5.1-3,6.6s-5,2.3-9,2.3c-2,0-3.8-0.1-5.2-0.4c-1.4-0.3-2.8-0.7-4-1.2v-6.3
			c1.4,0.7,3,1.2,4.8,1.7s3.4,0.7,4.7,0.7c2.8,0,4.2-0.8,4.2-2.4c0-0.6-0.2-1.1-0.6-1.5s-1-0.8-1.9-1.3s-2.1-1-3.6-1.7
			c-2.2-0.9-3.7-1.7-4.8-2.5c-1-0.8-1.7-1.7-2.2-2.7s-0.7-2.2-0.7-3.7c0-2.5,1-4.4,2.9-5.8s4.7-2.1,8.2-2.1c3.4,0,6.7,0.7,9.9,2.2
			l-2.3,5.5c-1.4-0.6-2.7-1.1-3.9-1.5c-1.2-0.4-2.5-0.6-3.7-0.6c-2.3,0-3.4,0.6-3.4,1.8c0,0.7,0.4,1.3,1.1,1.8s2.3,1.3,4.8,2.2
			c2.2,0.9,3.8,1.7,4.8,2.5s1.8,1.7,2.3,2.7C268.9,64.1,269.2,65.3,269.2,66.7z"/>
		<path class="st2" d="M181.4,109.1h-6.6v22.4h-7.7v-22.4h-4.2v-3.7l4.2-2.1v-2.1c0-3.2,0.8-5.5,2.4-7c1.6-1.5,4.1-2.2,7.6-2.2
			c2.6,0,5,0.4,7.1,1.2l-2,5.6c-1.5-0.5-3-0.7-4.3-0.7c-1.1,0-1.9,0.3-2.4,1c-0.5,0.6-0.7,1.5-0.7,2.5v1.8h6.6L181.4,109.1
			L181.4,109.1z M185.5,96.1c0-2.5,1.4-3.8,4.2-3.8s4.2,1.2,4.2,3.8c0,1.2-0.3,2.1-1,2.8s-1.7,1-3.1,1
			C186.9,99.8,185.5,98.6,185.5,96.1z M193.5,131.5h-7.7v-28.2h7.7V131.5z"/>
		<path class="st2" d="M216.6,102.8c1,0,1.9,0.1,2.6,0.2l-0.6,7.2c-0.6-0.2-1.4-0.3-2.3-0.3c-2.4,0-4.3,0.6-5.7,1.9
			c-1.4,1.3-2,3-2,5.3v14.3h-7.7v-28.2h5.8l1.1,4.7h0.4c0.9-1.6,2-2.8,3.5-3.8C213.3,103.3,214.9,102.8,216.6,102.8z"/>
		<path class="st2" d="M243.4,123.1c0,2.9-1,5.1-3,6.6s-5,2.3-9,2.3c-2,0-3.8-0.1-5.2-0.4c-1.4-0.3-2.8-0.7-4-1.2v-6.3
			c1.4,0.7,3,1.2,4.8,1.7s3.4,0.7,4.7,0.7c2.8,0,4.2-0.8,4.2-2.4c0-0.6-0.2-1.1-0.6-1.5s-1-0.8-1.9-1.3s-2.1-1-3.6-1.7
			c-2.2-0.9-3.7-1.7-4.8-2.5c-1-0.8-1.7-1.7-2.2-2.7s-0.7-2.2-0.7-3.7c0-2.5,1-4.4,2.9-5.8s4.7-2.1,8.2-2.1c3.4,0,6.7,0.7,9.9,2.2
			l-2.3,5.5c-1.4-0.6-2.7-1.1-3.9-1.5c-1.2-0.4-2.5-0.6-3.7-0.6c-2.3,0-3.4,0.6-3.4,1.8c0,0.7,0.4,1.3,1.1,1.8s2.3,1.3,4.8,2.2
			c2.2,0.9,3.8,1.7,4.8,2.5s1.8,1.7,2.3,2.7C243.1,120.5,243.4,121.7,243.4,123.1z"/>
		<path class="st2" d="M260.7,125.9c1.3,0,2.9-0.3,4.8-0.9v5.7c-1.9,0.9-4.3,1.3-7,1.3c-3.1,0-5.3-0.8-6.7-2.3s-2.1-3.9-2.1-7v-13.6
			H246v-3.2l4.2-2.6l2.2-5.9h4.9v6h7.9v5.8h-7.9v13.6c0,1.1,0.3,1.9,0.9,2.4S259.6,125.9,260.7,125.9z"/>
	</g>
	<g>
		<path class="st2" d="M73.7,131.9c-4.9-9.3-3-17.5,0.7-39.3c2.8-17,18.2-24.4,32.2-15.9c16,9.6,27.2,15.9,31,23.7
			c3.8,7.7-1.6,11.7-10,15.7s-13.6-3.4-21.6,0.5c-7,3.4-5.6,13-14.9,17.6C81.3,139,76.8,137.9,73.7,131.9z"/>
		<ellipse transform="matrix(0.897 -0.442 0.442 0.897 -36.3112 35.6483)" class="st2" cx="58.3" cy="95.7" rx="9.5" ry="12.4"/>
		<ellipse transform="matrix(0.897 -0.442 0.442 0.897 -18.2318 59.8573)" class="st2" cx="119.3" cy="69.1" rx="9.5" ry="12.4"/>
		<ellipse transform="matrix(0.897 -0.442 0.442 0.897 -22.7949 35.4866)" class="st2" cx="64.8" cy="66.7" rx="10.9" ry="14"/>
		<ellipse transform="matrix(0.897 -0.442 0.442 0.897 -14.8225 45.8806)" class="st2" cx="91" cy="54.7" rx="10.9" ry="14"/>
		<polygon class="st5" points="107.2,86.8 98.7,91.3 94.4,83.3 85.6,87.9 89.9,96 81.7,100.4 86.4,109.2 94.6,104.8 99.2,113.5 
			108,108.8 103.4,100.1 111.9,95.6 		"/>
	</g>
</g>
</svg>
