<?xml version="1.0" encoding="utf-8"?>
<!-- Generator: Adobe Illustrator 23.0.0, SVG Export Plug-In . SVG Version: 6.00 Build 0)  -->
<svg version="1.1" id="Capa_1" xmlns="http://www.w3.org/2000/svg" xmlns:xlink="http://www.w3.org/1999/xlink" x="0px" y="0px"
	 viewBox="0 0 333.8 333.8" style="enable-background:new 0 0 333.8 333.8;" xml:space="preserve">
<style type="text/css">
	.st0{fill:#FFFFFF;}
</style>
<g>
	<g>
		<path class="st0" d="M331,2.4c-3-2.6-7.4-2.6-10.4,0l-64,64l-10.7-10.7c-3.1-3.1-8.2-3.1-11.3,0l-31.1,31.1l-35.4-4.3
			c-2.5-0.3-4.9,0.6-6.6,2.3l-93.3,92.7l-4.9-4.8c-6.7-6.5-17.3-6.5-24,0l-9.4,9.3c-6.5,6.7-6.5,17.3,0,24l43.4,43.4l-37.5,37.5
			L13.9,265c-3.2-3.2-8.4-3.1-11.6,0.1s-3.1,8.4,0.1,11.6l27.4,27.2l27.5,27.5c3.4,2.9,8.4,2.5,11.3-0.9c2.6-3,2.6-7.4,0-10.4
			l-21.9-21.9l37.7-37.5l43.4,43.4c6.7,6.5,17.3,6.5,24,0l9.4-9.4c6.5-6.7,6.5-17.3,0-24l-4.9-4.9l29.6-29.6l49.7-49.7l13.6-13.6
			c1.8-1.7,2.6-4.2,2.3-6.6l-4.6-36.8l31-30.6c3.1-3.1,3.1-8.2,0-11.3l-10-10l64-64C334.8,10.3,334.4,5.3,331,2.4z M149.9,283.4
			C149.9,283.4,149.9,283.4,149.9,283.4l-9.2,9.3c-0.4,0.4-1.1,0.4-1.5,0c0,0,0,0-0.1,0l-49-49l-49-49c-0.4-0.4-0.5-1-0.1-1.5
			c0,0,0,0,0-0.1l9.4-9.4c0.2-0.1,0.5-0.1,0.7,0c0.2-0.1,0.5-0.1,0.7,0l97.9,98C150.3,282.3,150.3,283,149.9,283.4z M233,120.9
			c-1.8,1.7-2.6,4.2-2.3,6.6l4.6,36.8l-5.4,5.2l-15.6-15.6c-3.4-2.9-8.4-2.5-11.3,0.9c-2.6,3-2.6,7.4,0,10.4l15.7,15.5l-13.5,13.6
			l-15.3-15.5c-3.4-2.9-8.4-2.5-11.3,0.9c-2.6,3-2.6,7.4,0,10.4l15.6,15.6l-13.5,13.5l-15.6-15.6c-3.4-2.9-8.4-2.5-11.3,0.9
			c-2.6,3-2.6,7.4,0,10.4l15.6,15.6l-24,24l-65.9-65.8l90.2-90L205,103c2.5,0.3,4.9-0.6,6.6-2.3l28.2-28.2l20.7,20.7L233,120.9z"/>
	</g>
</g>
</svg>
