<?xml version="1.0" encoding="utf-8"?>
<!-- Generator: Adobe Illustrator 23.0.0, SVG Export Plug-In . SVG Version: 6.00 Build 0)  -->
<svg version="1.1" id="Capa_1" xmlns="http://www.w3.org/2000/svg" xmlns:xlink="http://www.w3.org/1999/xlink" x="0px" y="0px"
	 viewBox="0 0 391.2 391.2" style="enable-background:new 0 0 391.2 391.2;" xml:space="preserve">
<style type="text/css">
	.st0{fill:#FFFFFF;}
</style>
<g>
	<g>
		<path class="st0" d="M373.3,194.4h-10.4l-28.2-124c-0.8-3.7-4.2-6.3-8-6.2h-69.9V30.5c0-13.5-11-24.4-24.5-24.5h-73.8
			c-13.5,0-24.4,11-24.5,24.5v33.7H64.2c-3.8-0.1-7.2,2.5-8,6.2l-27.8,124H17.9c-9.9,0-17.9,8-17.9,17.9v24
			c-0.1,9.9,7.8,17.9,17.7,18.1h10.6l28,124.5c0.8,3.7,4.2,6.3,8,6.2h262.4c3.8,0.1,7.2-2.5,8-6.2L363,254.3h10.2
			c9.9,0,17.9-8,17.9-17.9l0,0v-24C391.2,202.5,383.2,194.4,373.3,194.4z M149.9,30.5c0-4.7,3.8-8.5,8.5-8.5h73.8
			c4.7,0,8.5,3.8,8.5,8.5v33.7h-90.8L149.9,30.5L149.9,30.5z M70.5,80.2h249.6l26,114.2h-33.6l-8.6-48.8c-0.8-4.4-5-7.4-9.4-6.6
			s-7.4,5-6.6,9.4l8,46H258l-3.7-48c-0.3-4.4-4.2-7.7-8.6-7.4s-7.7,4.2-7.4,8.6l3.5,46.8h-38.5v-47.5c0-4.4-3.6-8-8-8s-8,3.6-8,8
			v47.4h-39l3.5-46.8c0.3-4.3-2.7-8-7-8.6c-4.4-0.3-8.2,3-8.6,7.4l-3.7,48H94.3l8-46c0.8-4.4-2.2-8.6-6.6-9.4s-8.6,2.2-9.4,6.6
			l-8.6,48.8H44.3L70.5,80.2z M320.1,369.3H70.5L44.3,254.8h33.6l8.7,49c0.7,3.8,4.1,6.6,8,6.6h1.4c4.3-0.8,7.3-4.9,6.5-9.3
			c0,0,0,0,0,0l-8-46.2h37.8l3.7,48c0.3,4.2,3.8,7.4,8,7.4h0.6c4.4-0.3,7.7-4.2,7.4-8.6l-3.7-46.9H187v48c0,4.4,3.6,8,8,8s8-3.6,8-8
			v-48h38.6l-3.6,47c-0.3,4.4,3,8.2,7.4,8.6h0.6c4.2,0,7.7-3.2,8-7.4l3.7-48h38.6l-8,46.2c-0.8,4.4,2.1,8.5,6.5,9.3c0,0,0,0,0,0h1.4
			c3.9,0.1,7.3-2.7,8-6.6l8.7-49h33.6L320.1,369.3z M375,212.4v24c0,1.1-0.9,1.9-1.9,1.9H17.7c-1.1,0-1.9-0.9-1.9-1.9l0.1-24
			c0-1.1,0.9-1.9,1.9-1.9h15.4c0.4,0,0.9,0,1.3,0h321.9c0.4,0,0.9,0,1.3,0H373C374.1,210.4,375,211.3,375,212.4L375,212.4z"/>
	</g>
</g>
</svg>
