<?xml version="1.0" standalone="no"?>
<!DOCTYPE svg PUBLIC "-//W3C//DTD SVG 20010904//EN"
 "http://www.w3.org/TR/2001/REC-SVG-20010904/DTD/svg10.dtd">
<svg version="1.0" xmlns="http://www.w3.org/2000/svg"
 width="700.000000pt" height="700.000000pt" viewBox="0 0 700.000000 700.000000"
 preserveAspectRatio="xMidYMid meet">
<metadata>
Created by potrace 1.11, written by Peter Selinger 2001-2013
</metadata>
<g transform="translate(0.000000,700.000000) scale(0.100000,-0.100000)"
fill="#000000" stroke="none">
<path d="M3405 6363 c-764 -22 -1497 -361 -2018 -931 -522 -573 -789 -1318
-746 -2087 40 -717 325 -1358 829 -1865 230 -231 462 -400 750 -544 416 -208
812 -301 1280 -301 468 0 864 93 1280 301 448 224 829 561 1108 979 614 922
635 2146 52 3084 -407 655 -1041 1113 -1785 1291 -219 52 -505 80 -750 73z
m318 -1146 c63 -27 62 -16 37 -528 l-22 -463 -128 -165 c-148 -193 -282 -379
-328 -454 -40 -66 -42 -109 -12 -267 70 -375 197 -753 329 -979 l42 -71 -11
-222 c-13 -288 -15 -301 -47 -332 -26 -26 -27 -26 -188 -26 -1120 0 -1968 626
-2105 1555 -17 115 -15 352 4 465 144 834 853 1391 1896 1488 160 15 496 14
533 -1z"/>
<path d="M2756 4136 c-89 -33 -144 -107 -153 -204 -5 -57 16 -154 37 -167 4
-2 34 5 66 16 90 31 156 28 231 -10 l63 -31 20 40 c80 158 -12 349 -176 365
-30 3 -64 0 -88 -9z"/>
</g>
</svg>
